<?xml version="1.0" standalone="no"?>
<!DOCTYPE svg PUBLIC "-//W3C//DTD SVG 1.1//EN" "http://www.w3.org/Graphics/SVG/1.1/DTD/svg11.dtd" >
<svg xmlns="http://www.w3.org/2000/svg">
  <metadata>Created by iconfont</metadata>
  <defs>
  <font id="iconfont" horiz-adv-x="1024">
    <font-face
      font-family="iconfont"
      font-weight="400"
      font-stretch="normal"
      units-per-em="1024"
      ascent="896"
      descent="-128"
    />
      <missing-glyph />
      
      <glyph glyph-name="cloud-upload" unicode="&#59353;" d="M518.3 437c-3.2 4.1-9.4 4.1-12.6 0l-112-141.7c-4.1-5.2-0.4-12.9 6.3-12.9h73.9V40c0-4.4 3.6-8 8-8h60c4.4 0 8 3.6 8 8V282.29999999999995H624c6.7 0 10.4 7.7 6.3 12.9L518.3 437zM811.4 529.3C765.6 650.1 648.9 736 512.2 736S258.8 650.2 213 529.4C127.3 506.9 64 428.8 64 336c0-110.5 89.5-200 199.9-200H304c4.4 0 8 3.6 8 8v60c0 4.4-3.6 8-8 8h-40.1c-33.7 0-65.4 13.4-89 37.7-23.5 24.2-36 56.8-34.9 90.6 0.9 26.4 9.9 51.2 26.2 72.1 16.7 21.3 40.1 36.8 66.1 43.7l37.9 9.9 13.9 36.6c8.6 22.8 20.6 44.1 35.7 63.4 14.9 19.2 32.6 35.9 52.4 49.9 41.1 28.9 89.5 44.2 140 44.2s98.9-15.3 140-44.2c19.9-14 37.5-30.8 52.4-49.9 15.1-19.3 27.1-40.7 35.7-63.4l13.8-36.5 37.8-10C846.1 441.5 884 392.2 884 336c0-33.1-12.9-64.3-36.3-87.7-23.4-23.4-54.5-36.3-87.6-36.3H720c-4.4 0-8-3.6-8-8v-60c0-4.4 3.6-8 8-8h40.1C870.5 136 960 225.5 960 336c0 92.7-63.1 170.7-148.6 193.3z"  horiz-adv-x="1024" />
      
      <glyph glyph-name="cloud" unicode="&#59354;" d="M811.4 477.3C765.6 598.1 648.9 684 512.2 684S258.8 598.2 213 477.4C127.3 454.9 64 376.9 64 284c0-110.5 89.5-200 199.9-200h496.2C870.5 84 960 173.5 960 284c0 92.7-63.1 170.7-148.6 193.3z m36.3-281c-23.4-23.4-54.5-36.3-87.6-36.3H263.9c-33.1 0-64.2 12.9-87.6 36.3-23.4 23.4-36.3 54.6-36.3 87.7 0 28 9.1 54.3 26.2 76.3 16.7 21.3 40.2 36.8 66.1 43.7l37.9 9.9 13.9 36.6c8.6 22.8 20.6 44.1 35.7 63.4 14.9 19.2 32.6 35.9 52.4 49.9 41.1 28.9 89.5 44.2 140 44.2s98.9-15.3 140-44.2c19.9-14 37.5-30.8 52.4-49.9 15.1-19.3 27.1-40.7 35.7-63.4l13.8-36.5 37.8-10c54.3-14.5 92.1-63.8 92.1-120 0-33.1-12.9-64.3-36.3-87.7z"  horiz-adv-x="1024" />
      
      <glyph glyph-name="time" unicode="&#58976;" d="M512 832C264.96 832 64 631.04 64 384s200.96-448 448-448 448 200.96 448 448S759.04 832 512 832zM512 0.288c-211.584 0-383.712 172.16-383.712 383.712C128.288 595.584 300.416 767.712 512 767.712c211.552 0 383.712-172.128 383.712-383.712C895.712 172.448 723.552 0.288 512 0.288zM671.968 384 512 384 512 607.936c0 17.76-14.24 32.128-32 32.128s-32-14.4-32-32.128L448 352c0-17.76 14.272-32 32-32l191.968 0c17.76 0 32.128 14.24 32.128 32S689.728 384 671.968 384z"  horiz-adv-x="1024" />
      
      <glyph glyph-name="discuss" unicode="&#58910;" d="M596.25398375 751.6989599999999c-115.56152438 0-209.5901475-94.01457094-209.5901475-209.58077906 0-79.85348437 44.91554719-149.40988781 110.78164031-184.78496625-137.18811188-42.29551125-237.17051062-170.25231938-237.17051062-321.150885 0-11.05313062 8.9493075-20.00206406 20.02117593-20.00206406 11.03383125 0 20.00674781 8.9489325 20.00674782 20.00206406 0 163.18180031 132.76985719 295.95577969 294.48583875 296.02135969 2.13230437-0.21547875 4.23556594-0.06558094 6.25450968 0.38505187 113.36401406 2.55483 204.81026344 95.55946031 204.81026344 209.52925125C805.85349969 657.6843890600001 711.82431406 751.6989599999999 596.25398375 751.6989599999999L596.25398375 751.6989599999999zM596.25398375 372.55576874999997c-93.49329937 0-169.56222469 76.06911281-169.56222469 169.56690844 0 93.51241125 76.06892531 169.56747094 169.56222469 169.56747094 93.50266781 0 169.56747094-76.05955687 169.56747094-169.56747094C765.82126625 448.62956625 689.75646406 372.55576874999997 596.25398375 372.55576874999997L596.25398375 372.55576874999997zM639.12191844 366.16972406c-7.80314719 7.83219-43.89192844 8.99671312-51.73255032 1.20293438-7.82282156-7.79471531-7.83219-21.64626094-0.03747468-29.47751438 1.11768-1.11768-12.86596406-3.92546344 24.20858625-4.79862187 29.53353844-0.70452187 85.66204594-18.340065 119.37400218-33.70371094 51.54517781-23.45722125 86.25320813-66.26988187 88.18783407-68.48556656 47.30118-53.95854094 73.12492125-122.37946406 73.12492125-194.72510156 0-11.05313062 8.93113219-20.00206406 20.00206406-20.00206407 11.05313062 0 20.00206406 8.9489325 20.00206406 20.00206407 0 84.18742125-30.79174781 163.69801312-87.07015406 225.64801031-1.65262969 1.82220187-45.09298969 47.4885525-97.25837156 70.97481656-60.18494437 27.09225656-107.95568062 31.32669844-109.98399375 33.35501063l1.18326 0L639.12210594 366.16972406 639.12191844 366.16972406zM384.56038625 367.43823843999996c0 0.02810625-0.01873688 0.04684313-0.01873687 0.07494937 0 0.01873688 0.01873688 0.05621156 0.01873687 0.08431782 0 11.05313062-8.96804437 20.0114325-20.02117594 20.0114325-72.60833437 0-131.65686188 63.10046812-131.65686187 140.67231187 0 77.55760312 59.0485275 140.66294344 131.65686187 140.66294344 11.05313062 0 20.02117594 8.9489325 20.02117594 20.00206406 0 11.07130594-8.96804437 20.02080094-20.02117594 20.02080094-94.67655938 0-171.69883781-81.05548219-171.69883781-180.68562 0-66.30267187 34.10693812-124.35118969 84.82111594-155.79087375-107.963925-38.37060938-185.92082063-146.16608719-185.92082063-272.83639219 0-11.05313062 8.93993906-20.00206406 20.00674782-20.00206406 11.06718375 0 20.00712281 8.9489325 20.00712281 20.00206406 0 136.64323125 104.43344437 247.77301031 232.78448437 247.77301031C375.59234188 347.42680686999995 384.56038625 356.37573937 384.56038625 367.43823843999996L384.56038625 367.43823843999996z"  horiz-adv-x="1024" />
      
      <glyph glyph-name="suggest" unicode="&#58951;" d="M311.49953 492.64346156c-27.68015062 0-50.12793938-23.06302875-50.12794031-51.52210687s22.44778969-51.52775156 50.12794031-51.52775157 50.12229562 23.06867344 50.12229469 51.52775157-22.442145 51.52210687-50.12229469 51.52210687z m200.50047 0c-27.68015062 0-50.12229562-23.06302875-50.12229562-51.52210687s22.44778969-51.52775156 50.12229562-51.52775157c27.68015062 0 50.12793938 23.06867344 50.12793938 51.52775157s-22.44778969 51.52210687-50.12793938 51.52210687z m200.50047 0c-27.68015062 0-50.12793938-23.06302875-50.12793938-51.52210687s22.44778969-51.52775156 50.12793938-51.52775157 50.12229562 23.06867344 50.12229562 51.52775157-22.442145 51.52210687-50.12229562 51.52210687z m100.25023594 257.61618094H211.24929406c-55.365945 0-100.250235-46.14299156-100.250235-103.04985844v-386.41580437c0-56.91251156 45.8946375-109.37158969 102.52492969-109.37159063h152.77704562c26.6246475-28.10912531 136.84289719-141.17779875 136.84289813-141.17779875a12.27093094 12.27093094 0 0 1 17.71777969 0s80.69238 90.66039469 133.26999093 141.17779875h156.34430813c56.63593594 0 102.52492969 52.45907812 102.52492969 109.37159063v386.41580437c0 56.90686781-44.88429 103.04985844-100.250235 103.04985844z m50.12793937-489.4713075c0-28.45343344-24.08466562-58.30667906-52.40263406-58.30667906h-153.75352781c-18.62652844 0-35.36782687-18.97648125-35.36782688-18.97648219l-107.96048906-110.95766625-107.93791125 110.95766625s-20.55691406 18.97648125-38.17873969 18.97648219H213.52398875c-28.31796844 0-52.40263406 29.85889031-52.40263406 58.30667906v386.41580438c0 28.45907812 22.442145 51.52775156 50.12229562 51.52775156h601.50141094c27.68579531 0 50.12793938-23.06867344 50.12793937-51.52775156v-386.41580438z"  horiz-adv-x="1024" />
      
      <glyph glyph-name="wechat" unicode="&#58883;" d="M579.05 488.65c26.55 0 49.05 19.8 49.05 49.05s-22.5 49.05-49.05 49.05-48.6-19.8-48.6-49.05 22.05-49.05 48.6-49.05zM358.1 586.75c-26.55 0-48.6-19.8-48.6-49.05s22.05-49.05 48.6-49.05 49.05 19.8 49.05 49.05-22.5 49.05-49.05 49.05z m210.15-270.9c-16.2 0-32.85-18.45-32.85-36.45 0-18.45 16.65-36.45 32.85-36.45 24.75 0 40.95 18 40.95 36.45 0 18-16.2 36.45-40.95 36.45z m147.15 0c-16.2 0-32.4-18.45-32.4-36.45 0-18.45 16.2-36.45 32.4-36.45 24.75 0 40.95 18 40.95 36.45 0 18-16.65 36.45-40.95 36.45zM903.5 233.5c0 66.15-33.3 126-84.6 168.3 0.45 3.15 0.45 5.85 0.45 8.55 0 253.35-180.45 346.95-351.9 346.95-191.7 0-348.75-136.8-348.75-310.95 0-100.35 52.2-182.7 139.5-246.6l0.9-81.9 86.4 36c30.15-6.3 44.1-9.45 63.9-10.8 39.15-81.45 129.6-138.6 237.15-138.6 30.15 0 60.75 8.1 90.9 15.75l83.25-47.7-22.95 79.2c60.3 47.25 105.75 110.7 105.75 181.8z m-509.85 14.4c0-12.6 1.35-24.75 3.15-36.45-7.2 1.35-15.3 3.15-26.1 4.95-3.15 0.45-5.4 1.35-8.55 1.8l-13.95 3.15-13.05-5.4-17.55-7.65v8.55l-0.45 22.95-18.45 13.5c-36.45 27-64.8 56.7-83.25 88.65-9.45 15.75-16.2 32.85-21.15 49.95-4.5 17.55-7.2 36-7.2 54.9 0 65.25 28.8 126 80.1 171.9 25.65 22.5 55.35 40.95 89.1 53.1 35.1 13.05 72 19.8 110.7 19.8 36.9 0 72.9-4.95 105.3-15.3 34.65-10.8 64.8-27 90-47.7 27-22.05 48.15-50.4 62.55-83.7 14.4-31.95 22.05-68.85 24.3-110.25-35.1 17.55-74.25 27.45-115.2 27.45-134.55 0-240.3-96.3-240.3-214.2z m366.3-149.85l0.9-46.8-40.95 25.2c-26.1-6.75-51.3-13.5-73.8-13.5-27.45 0-54 4.5-78.75 13.95-23.85 9-44.55 21.6-62.55 37.8-35.55 31.5-54.9 73.8-54.9 117.9S468.8 319 504.35 350.5c17.55 16.2 38.7 28.8 62.55 37.8 24.75 9.45 51.3 13.95 78.75 13.95 25.65 0 51.3-4.5 75.15-13.95 23.85-9 45-21.6 63-37.8 18-16.2 31.95-34.2 42.3-54 10.35-20.25 15.3-41.85 15.3-63.45 0-23.4-7.2-46.35-21.6-69.75-13.95-22.95-34.2-44.55-59.85-65.25z"  horiz-adv-x="1024" />
      
      <glyph glyph-name="feedback" unicode="&#59151;" d="M704 128.608A315.84 315.84 0 0 0 512 64a316.608 316.608 0 0 0-192.768 65.184l0.768-0.576C242.464 187.072 192 279.616 192 384c0 176.448 143.552 320 320 320s320-143.552 320-320c0-104.384-50.464-196.928-128-255.392M512 768C300.256 768 128 595.744 128 384c0-141.76 77.408-265.504 192-332.032A376.768 376.768 0 0 1 511.936 0h0.128c70.72 0.032 136.96 19.36 193.696 52.928l-1.76-0.96c114.592 66.528 192 190.272 192 332.032 0 211.744-172.256 384-384 384m127.936-275.84C639.936 556.096 582.528 608 512 608c-70.592 0-128-51.936-128-115.84v-15.52a32 32 0 0 1 64 0v15.552c0 28.576 28.736 51.808 64 51.808 35.296 0 64-23.232 64-51.84v-49.152c0.064-1.536-0.544-31.616-39.808-59.008-9.28-6.56-19.84-12.448-31.04-17.184l-1.12-0.416a31.648 31.648 0 0 1-24-30.4v-37.184a32 32 0 0 1 64 0v15.488c41.952 20.672 65.696 46.464 79.04 69.696 18.56 32.512 16.992 59.84 16.896 60.64V492.16zM512 224a32 32 0 0 1 0-64 32 32 0 0 1 0 64"  horiz-adv-x="1024" />
      
      <glyph glyph-name="bianji" unicode="&#59376;" d="M866 445.918c0 16.569 13.431 30 30 30 16.569 0 30-13.431 30-30V59c0-49.706-40.294-90-90-90H188c-49.706 0-90 40.294-90 90V678c0 49.706 40.294 90 90 90h422.5c16.569 0 30-13.431 30-30 0-16.569-13.431-30-30-30H188c-16.569 0-30-13.431-30-30v-619c0-16.569 13.431-30 30-30h648c16.569 0 30 13.431 30 30V445.918zM507.567 336.311c-11.716-11.715-30.71-11.715-42.427 0-11.715 11.716-11.715 30.711 0 42.427L875.262 788.86c11.716 11.715 30.711 11.715 42.427 0 11.715-11.716 11.715-30.711 0-42.427L507.567 336.311z"  horiz-adv-x="1024" />
      
      <glyph glyph-name="91jiazai" unicode="&#59040;" d="M508 601.2c-21.5 0-39 17.5-39 39v150.3c0 21.5 17.5 39 39 39s39-17.5 39-39v-150.3c0-21.5-17.5-39-39-39zM380.4 565.8c-13.5 0-26.6 7-33.8 19.5l-75.1 130.1c-10.8 18.7-4.4 42.5 14.3 53.3 18.7 10.8 42.5 4.4 53.3-14.3l75.1-130.1c10.8-18.7 4.4-42.5-14.3-53.3-6.2-3.5-12.9-5.2-19.5-5.2zM287.5 471.3c-6.6 0-13.3 1.7-19.5 5.2l-130.1 75.1c-18.7 10.8-25 34.6-14.3 53.3 10.8 18.7 34.6 25 53.3 14.3l130.1-75.1c18.7-10.8 25-34.6 14.3-53.3-7.2-12.5-20.3-19.5-33.8-19.5zM254.5 343.1h-150.3c-21.5 0-39 17.5-39 39s17.5 39 39 39h150.3c21.5 0 39-17.5 39-39s-17.5-39-39-39zM159.8 140.4c-13.5 0-26.6 7-33.8 19.5-10.8 18.7-4.4 42.5 14.3 53.3l130.1 75.1c18.7 10.8 42.5 4.4 53.3-14.3 10.8-18.7 4.4-42.5-14.3-53.3l-130.1-75.1c-6.2-3.5-12.9-5.2-19.5-5.2zM309.2-7.4c-6.6 0-13.3 1.7-19.5 5.2-18.7 10.8-25 34.6-14.3 53.3l75.1 130.1c10.8 18.7 34.6 25 53.3 14.3 18.7-10.8 25-34.6 14.3-53.3l-75.1-130.1c-7.2-12.5-20.3-19.5-33.8-19.5zM512.6-60.6c-21.5 0-39 17.5-39 39v150.2c0 21.5 17.5 39 39 39s39-17.5 39-39v-150.3c0-21.5-17.5-38.9-39-38.9zM715.3-5.1c-13.5 0-26.6 7-33.8 19.5l-75.1 130.1c-10.8 18.7-4.4 42.5 14.3 53.3 18.7 10.8 42.5 4.4 53.3-14.3l75.1-130.1c10.8-18.7 4.4-42.5-14.3-53.3-6.1-3.5-12.9-5.2-19.5-5.2zM863 144.4c-6.6 0-13.3 1.7-19.5 5.2l-130.1 75.1c-18.7 10.8-25 34.6-14.3 53.3 10.8 18.7 34.6 25 53.3 14.3l130.1-75.1c18.7-10.8 25-34.6 14.3-53.3-7.2-12.5-20.3-19.5-33.8-19.5zM916.3 347.7h-150.2c-21.5 0-39 17.5-39 39s17.5 39 39 39h150.3c21.5 0 39-17.5 39-39s-17.5-39-39.1-39zM730.7 475.3c-13.5 0-26.6 7-33.8 19.5-10.8 18.7-4.4 42.5 14.3 53.3l130.1 75.1c18.7 10.8 42.5 4.4 53.3-14.3 10.8-18.7 4.4-42.5-14.3-53.3l-130.1-75.1c-6.2-3.5-12.9-5.2-19.5-5.2zM636.1 568.1c-6.6 0-13.3 1.7-19.5 5.2-18.7 10.8-25 34.6-14.3 53.3l75.1 130.1c10.8 18.7 34.6 25 53.3 14.3 18.7-10.8 25-34.6 14.3-53.3l-75.1-130.1c-7.2-12.5-20.3-19.5-33.8-19.5z"  horiz-adv-x="1024" />
      
      <glyph glyph-name="fenzu" unicode="&#58988;" d="M852.40270475 283.07315914000003H499.33963343a28.93959632 28.93959632 0 0 0-28.93959633 28.93959559V455.98724527a28.93959632 28.93959632 0 0 0 28.93959633 28.93959559h353.06307132a28.93959632 28.93959632 0 0 0 28.93959633-28.93959559v-143.97449054a28.93959632 28.93959632 0 0 0-28.93959633-28.93959559z m-324.12347572 57.87919192h295.18388013V427.04764894H528.27922902zM852.40270475 13.211425780000013H499.33963343a28.93959632 28.93959632 0 0 0-28.93959633 28.93959632V186.84900224a28.93959632 28.93959632 0 0 0 28.93959633 28.93959561h353.06307132a28.93959632 28.93959632 0 0 0 28.93959633-28.93959561v-144.69798014a28.93959632 28.93959632 0 0 0-28.93959633-28.93959632z m-324.12347572 57.87919191h295.18388013V157.90940593000005H528.27922902zM852.40270475 552.21140215H499.33963343a28.93959632 28.93959632 0 0 0-28.93959633 28.93959561V725.8489779a28.93959632 28.93959632 0 0 0 28.93959633 28.93959632h353.06307132a28.93959632 28.93959632 0 0 0 28.93959633-28.93959632v-144.69798015a28.93959632 28.93959632 0 0 0-28.93959633-28.9395956z m-324.12347572 57.87919192h295.18388013V696.90938231H528.27922902zM320.63762746 87.00739582000006H170.87521854a28.93959632 28.93959632 0 0 0-28.93959632 28.93959559V651.32951825a28.93959632 28.93959632 0 0 0 28.93959632 28.93959632h149.76240892a28.93959632 28.93959632 0 1 0 0-57.87919192H199.81481412v-477.50333493h120.82281334a28.93959632 28.93959632 0 1 0 0-57.8791919zM320.63762746 354.69865887000003H170.87521854a28.93959632 28.93959632 0 0 0 0 57.87919192h149.76240892a28.93959632 28.93959632 0 0 0 0-57.87919192zM570.24164353 561.61677082a28.93959632 28.93959632 0 0 0-28.93959631 28.93959559V709.9322005a28.93959632 28.93959632 0 0 0 57.87919264 0v-119.37583409a28.93959632 28.93959632 0 0 0-28.93959633-28.93959559zM570.24164353 287.4140983a28.93959632 28.93959632 0 0 0-28.93959631 28.93959631V435.72952799a28.93959632 28.93959632 0 0 0 57.87919264 0v-119.37583338a28.93959632 28.93959632 0 0 0-28.93959633-28.93959631zM570.24164353 19.722835239999995a28.93959632 28.93959632 0 0 0-28.93959631 28.93959559V168.03826491999996a28.93959632 28.93959632 0 0 0 57.87919264 1e-8v-119.3758341a28.93959632 28.93959632 0 0 0-28.93959633-28.93959559z"  horiz-adv-x="1024" />
      
      <glyph glyph-name="back" unicode="&#59122;" d="M238.336 384l374.528-374.528 60.330667 60.330667-313.984 314.453333 310.954666 310.912-60.330666 60.330667z"  horiz-adv-x="1024" />
      
      <glyph glyph-name="shanchu1x" unicode="&#59066;" d="M871.850667 738.133333a505.173333 505.173333 0 1 1-714.581334-714.24 505.173333 505.173333 0 0 1 714.581334 714.24zM694.954667 255.232a38.4 38.4 0 0 0-54.357334-54.272L514.986667 326.656 389.376 201.045333a38.4 38.4 0 0 0-54.357333 54.272L460.8 381.013333 335.018667 506.709333a38.4 38.4 0 1 0 54.357333 54.357334l125.610667-125.696 125.610666 125.696a38.4 38.4 0 1 0 54.357334-54.357334L569.173333 381.013333l125.696-125.696z"  horiz-adv-x="1024" />
      
      <glyph glyph-name="tianjiaren1x" unicode="&#59065;" d="M905.92 108.224h-99.392v96.64a40.32 40.32 0 0 1-40.896 39.68 40.32 40.32 0 0 1-40.832-39.68v-96.64H625.28a40.32 40.32 0 0 1-40.896-39.68c0-21.888 18.368-39.68 40.96-39.68h99.392v-96.64c0-21.888 18.304-39.68 40.832-39.68a40.32 40.32 0 0 1 40.896 39.68v96.64h99.392a40.32 40.32 0 0 1 40.96 39.68 40.32 40.32 0 0 1-40.96 39.68z m-140.288 522.624C765.632 767.232 652.16 877.824 512 877.824S258.368 767.232 258.368 630.848C258.368 494.464 371.84 384 512 384s253.632 110.528 253.632 246.912zM512 463.36c-94.976 0-172.16 75.072-172.16 167.552 0 92.544 77.184 167.552 172.16 167.552s172.16-75.008 172.16-167.552C684.16 538.368 606.912 463.36 512 463.36z m237.824-148.224A441.28 441.28 0 0 1 512 383.936c-240.192 0-434.816-189.568-434.816-423.424h0.128l-0.128-2.176c0-21.888 18.24-39.68 40.768-39.68a40.32 40.32 0 0 1 40.768 39.68c0 0.768 0 1.408-0.128 2.176h0.128c0 189.952 158.144 344 353.28 344a358.4 358.4 0 0 0 125.888-22.592 256.64 256.64 0 0 0 111.936 33.152z"  horiz-adv-x="1024" />
      
      <glyph glyph-name="import" unicode="&#59767;" d="M481.28 180.053333a32 32 0 0 1 22.613333-9.386666h16.213334a32.853333 32.853333 0 0 1 22.613333 9.386666l218.88 219.306667a21.333333 21.333333 0 0 1 0 30.293333l-30.293333 30.293334a20.906667 20.906667 0 0 1-29.866667 0L554.666667 312.746667V746.666667a21.333333 21.333333 0 0 1-21.333334 21.333333h-42.666666a21.333333 21.333333 0 0 1-21.333334-21.333333v-433.92l-146.773333 147.2a21.333333 21.333333 0 0 1-30.293333 0l-29.866667-30.293334a21.333333 21.333333 0 0 1 0-30.293333z m30.72 90.026667zM896 85.333333v149.333334a21.333333 21.333333 0 0 1-21.333333 21.333333h-42.666667a21.333333 21.333333 0 0 1-21.333333-21.333333V85.333333H213.333333v149.333334a21.333333 21.333333 0 0 1-21.333333 21.333333h-42.666667a21.333333 21.333333 0 0 1-21.333333-21.333333V85.333333a85.333333 85.333333 0 0 1 85.333333-85.333333h597.333334a85.333333 85.333333 0 0 1 85.333333 85.333333z"  horiz-adv-x="1024" />
      
      <glyph glyph-name="table1" unicode="&#58914;" d="M925.586 896H101.369C69.885 896 42.24 867.076 42.24 833.672v-902.8c0-33.403 27.645-58.872 59.129-58.872h824.217c31.484 0 56.057 25.469 56.057 58.873V833.672C981.643 867.076 957.198 896 925.586 896zM373.719 160.09199999999998V352.068h276.445v-191.976z m276.445-42.235v-203.494H373.719V117.85699999999997z m287.964 276.446h-244.45V597.797h244.45z m-287.964 0H373.719V597.797h276.445z m-319.96 0H85.754V597.797h244.45z m-244.45-42.235h244.45v-191.976H85.754z m607.925 0h244.449v-191.976h-244.45zM101.369 853.765h824.217c7.807 0 12.542-10.366 12.542-20.093v-193.64H85.755V833.672c0 9.727 7.807 20.093 15.614 20.093zM85.755-68.99900000000002V117.85699999999997h244.449v-203.494H101.369c-7.807 0-15.614 6.91-15.614 16.51z m839.83-16.638H693.68V117.85699999999997h244.449v-186.856c0-9.727-4.607-16.638-12.542-16.638z"  horiz-adv-x="1024" />
      
      <glyph glyph-name="arrow_up" unicode="&#59020;" d="M135.8 158.10000000000002L512 534.3l376.2-376.2c16.4-16.4 43.1-16.4 59.5 0s16.4 43.1 0 59.5L565.1 600.2c-14.2 14.2-33 22-53.1 22s-38.9-7.8-53.1-22L76.3 217.60000000000002c-16.4-16.4-16.4-43.1 0-59.5 16.5-16.4 43.1-16.4 59.5 0z"  horiz-adv-x="1024" />
      
      <glyph glyph-name="md-checkmark" unicode="&#59105;" d="M372.602 216.214L192 397.078l-64-61.014L372.602 92 896 614.988 832 676z"  horiz-adv-x="1024" />
      
      <glyph glyph-name="List" unicode="&#59112;" d="M764.586667 93.866667H259.413333a34.133333 34.133333 0 0 0 0 68.266666h505.173334a34.133333 34.133333 0 0 0 0-68.266666z m0 170.666666H259.413333a34.133333 34.133333 0 0 0 0 68.266667h505.173334a34.133333 34.133333 0 0 0 0-68.266667z m0 170.666667H259.413333a34.133333 34.133333 0 0 0 0 68.266667h505.173334a34.133333 34.133333 0 0 0 0-68.266667z m0 170.666667H259.413333a34.133333 34.133333 0 0 0 0 68.266666h505.173334a34.133333 34.133333 0 0 0 0-68.266666z"  horiz-adv-x="1024" />
      
      <glyph glyph-name="sousuo" unicode="&#58913;" d="M849.6 92.79999999999995L707.9 234.5c45.6 56.1 70.5 125.6 70.5 198.9 0 84.3-32.8 163.6-92.5 223.3-59.6 59.6-138.9 92.5-223.3 92.5-84.3 0-163.6-32.8-223.3-92.5-59.6-59.6-92.5-138.9-92.5-223.3s32.8-163.6 92.5-223.3c59.6-59.6 138.9-92.5 223.3-92.5 71.1 0 138.7 23.4 193.9 66.5l142.2-142.2c7-7 16.2-10.5 25.5-10.5s18.4 3.5 25.5 10.5c13.9 14 13.9 36.8-0.1 50.9zM218.9 433.3c0 134.4 109.3 243.7 243.7 243.7 134.4 0 243.7-109.3 243.7-243.7S597 189.60000000000002 462.6 189.60000000000002c-134.4 0-243.7 109.3-243.7 243.7z"  horiz-adv-x="1024" />
      
      <glyph glyph-name="arrow-down" unicode="&#59227;" d="M860.525714 625.371429l77.531429-77.531429-404.48-404.553143-404.48 404.48L206.628571 625.371429l326.948572-326.948572z"  horiz-adv-x="1024" />
      
      <glyph glyph-name="arrow-right" unicode="&#59228;" d="M326.948571 710.948571l77.531429 77.531429L808.96 384l-404.48-404.48-77.531429 77.531429L653.824 384z"  horiz-adv-x="1024" />
      
      <glyph glyph-name="more" unicode="&#59224;" d="M192 448a64 64 0 1 0 0-128 64 64 0 0 0 0 128z m320 0a64 64 0 1 0 0-128 64 64 0 0 0 0 128z m320 0a64 64 0 1 0 0-128 64 64 0 0 0 0 128z"  horiz-adv-x="1024" />
      
      <glyph glyph-name="copy" unicode="&#59225;" d="M864 768a32 32 0 0 0 32-32v-576a32 32 0 0 0-32-32H768v-96a32 32 0 0 0-32-32h-576a32 32 0 0 0-32 32v576a32 32 0 0 0 32 32H256V736a32 32 0 0 0 32 32h576z m-172.8-204.8H204.8v-486.4h486.4V563.2z m128 128H332.8l-0.064-51.2H736a32 32 0 0 0 32-32v-403.2h51.2V691.2z"  horiz-adv-x="1024" />
      
      <glyph glyph-name="share2" unicode="&#59226;" d="M752 232c-28.48 0-54.784-9.984-75.392-26.688L469.376 355.2a160.64 160.64 0 0 1 0 57.6l207.232 149.888a120.064 120.064 0 0 1 195.392 93.312c0 66.176-53.76 120-120 120A120.064 120.064 0 0 1 636.672 622.72L439.872 480.192a160 160 0 1 1 0-192.384l196.8-142.528a120.064 120.064 0 0 1 115.328-153.28c66.176 0 120 53.76 120 120 0 66.176-53.76 120-120 120z m0 476.032a52.032 52.032 0 1 0 0-104.064 52.032 52.032 0 0 0 0 104zM312 296A88.128 88.128 0 0 0 224 384c0 48.512 39.488 88 88 88S400 432.512 400 384s-39.488-88-88-88z m440-236.032a52.032 52.032 0 1 0 0 104.064 52.032 52.032 0 0 0 0-104.064z"  horiz-adv-x="1024" />
      
      <glyph glyph-name="header" unicode="&#59049;" d="M906.75446416-1.7142858400000023q-22.09821416 0-66.54575918 1.7578125T773.16071416 1.8013391599999977q-22.09821416 0-66.29464248-1.7578125t-66.29464336-1.7578125q-12.05357168 0-18.58258916 10.29575918t-6.52901748 22.8515625q0 15.56919668 8.5379458 23.10267832t19.5870542 8.53794668 25.61383916 3.515625 22.60044668 7.53348164q16.57366084 10.546875 16.57365996 70.3125l-0.50223164 196.37276836q0 10.546875-0.50223252 15.56919668-6.52901748 2.00892833-25.11160664 2.00892832H343.25q-19.08482168 0-25.61383916-2.00892832-0.50223252-5.02232168-0.50223252-15.56919668l-0.50223164-186.328125q0-71.31696416 18.58258916-82.36607168 8.03571416-5.02232168 24.10714249-6.52901748t28.62723251-1.7578125 22.60044668-7.53348252 10.04464248-22.8515625q0-13.05803584-6.27790166-24.10714248t-18.33147334-11.04910752q-23.60491084 0-70.06138418 1.7578125T256.36383916 1.8013391599999977q-21.59598252 0-64.28571416-1.7578125t-63.78348252-1.7578125q-11.55133916 0-17.82924082 10.546875T104.1875 31.433035840000002q0 15.06696416 7.78459834 22.60044668t18.08035664 8.7890625 23.85602754 3.76674082 21.09375 7.53348164q16.57366084 11.55133916 16.57365996 71.81919668l-0.50223164 28.62723252V582.88392832q0 1.50669667 0.25111582 13.05803584t0 18.33147334T190.57142832 633.609375t-1.7578125 21.09375-3.2645083 18.33147334-5.5245542 15.8203125-8.03571416 9.04017832q-7.53348252 5.02232168-22.60044668 6.02678584t-26.61830332 1.00446416-20.59151748 7.03125-9.0401792 22.60044668q0 13.05803584 6.02678584 24.10714249t18.08035752 11.04910751q23.10267832 0 69.55915166-1.7578125T256.36383916 766.19866084q21.09375 0 63.53236582 1.7578125T383.42857168 769.71428584q12.55580332 0 18.83370498-11.04910752t6.27790166-24.10714248q0-15.06696416-8.5379458-21.84709834T380.66629502 705.42857168t-24.8604917-2.0089292-21.59598165-6.52901748q-17.578125-10.546875-17.578125-80.35714248l0.50223165-160.71428585q0-10.546875 0.50223252-16.07142919 6.52901748-1.50669667 19.58705332-1.5066958h351.06026836q12.55580332 0 19.0848208 1.5066958 0.50223252 5.52455332 0.50223252 16.0714292l0.50223164 160.71428584q0 69.81026748-17.578125 80.35714248-9.04017832 5.52455332-29.38057998 6.27790166t-33.14732168 6.52901836T615.45982168 734.55803584q0 13.05803584 6.27790166 24.10714248t18.83370498 11.04910752q22.09821416 0 66.29464336-1.7578125t66.29464248-1.7578125q21.59598252 0 64.78794668 1.7578125t64.78794668 1.7578125q12.55580332 0 18.83370498-11.04910752t6.27790166-24.10714248q0-15.06696416-8.7890625-22.09821416t-20.08928584-7.2823667-25.86495498-1.5066958-22.09821416-6.27790166q-17.578125-11.55133916-17.578125-80.859375l0.50223164-473.60491084q0-59.765625 17.07589336-70.3125 8.03571416-5.02232168 23.10267832-6.78013418t26.86942002-2.26004502 20.8426333-7.78459746 9.0401792-22.34933086q0-13.05803584-6.02678584-24.10714248t-18.08035752-11.04910752z"  horiz-adv-x="1024" />
      
      <glyph glyph-name="share" unicode="&#59048;" d="M822.71149523-11.5078125H201.00648993a39.80796021 39.80796021 0 0 0-37.67909074 30.33166873V465.88627353a40.63689977 40.63689977 0 0 0 37.67909074 31.27364551h131.87681952a31.10409007 31.10409007 0 0 0 28.25931824-31.27364552A25.9420542 25.9420542 0 0 0 332.88330945 440.64128254H219.84603569v-395.63045855h584.02591456v395.63045855h-131.87681952a25.9420542 25.9420542 0 0 0-28.25931825 25.24499099 31.10409007 31.10409007 0 0 0 28.25931825 31.27364551h150.7163645a40.63689977 40.63689977 0 0 0 37.67909151-31.27364551v-447.06241731a39.80796021 39.80796021 0 0 0-37.67909151-30.33166872zM511.85899297 204.9585664a28.25931825 28.25931825 0 0 0-28.25931824 28.07092288V675.94720719l-72.26849685-87.98067812a28.5042326 28.5042326 0 0 0-39.75144122-3.95630483 27.58109496 27.58109496 0 0 0-4.1070211 39.18625515S452.49558465 728.50953965 492.45426115 775.0432168c2.95780904 2.26074582 29.7288028 10.36175005 41.35280212-3.20272262l122.45704703-148.83241015a27.18546433 27.18546433 0 0 0 6.33008709-17.52077749 27.93904653 27.93904653 0 0 0-10.41826905-21.66547765 28.69262796 28.69262796 0 0 0-39.75144121 4.14470018L540.11831122 675.94720719v-442.91771791a28.25931825 28.25931825 0 0 0-28.25931825-28.07092288z"  horiz-adv-x="1024" />
      
      <glyph glyph-name="trash" unicode="&#58909;" d="M715.79648-40.35584H308.1728c-56.21248 0-101.94432 45.61408-101.94432 101.69856V596.66944c0 14.06976 11.4176 25.48224 25.47712 25.48224s25.48224-11.41248 25.48224-25.48224v-535.32672c0-27.96544 22.86592-50.7392 50.98496-50.7392h407.62368c28.13952 0 51.01056 22.77376 51.01056 50.7392V596.66944a25.48736 25.48736 0 0 0 25.48224 25.48224 25.48736 25.48736 0 0 0 25.47712-25.48224v-535.32672c0-56.08448-45.75744-101.69856-101.96992-101.69856z m-76.40064 152.8832a25.48224 25.48224 0 0 0-25.47712 25.48224V494.7456a25.4976 25.4976 0 0 0 25.47712 25.48224 25.4976 25.4976 0 0 0 25.48736-25.48224v-356.736a25.48224 25.48224 0 0 0-25.48736-25.47712z m-127.40096 0a25.48224 25.48224 0 0 0-25.47712 25.48224V494.7456a25.49248 25.49248 0 0 0 25.47712 25.48224 25.49248 25.49248 0 0 0 25.48224-25.48224v-356.736A25.47712 25.47712 0 0 0 512 112.5376z m-127.40608 0a25.47712 25.47712 0 0 0-25.47712 25.48224V494.7456a25.48736 25.48736 0 0 0 25.47712 25.48224 25.49248 25.49248 0 0 0 25.48224-25.48224v-356.736a25.48224 25.48224 0 0 0-25.48224-25.47712zM932.43904 647.63904H91.56096c-14.05952 0-25.48224 11.40736-25.48224 25.47712s11.42272 25.48224 25.48224 25.48224h242.06848v50.8416c0 42.2144 34.39104 76.56448 76.66688 76.56448h203.4176c42.28608 0 76.6464-34.3552 76.6464-76.5696v-50.83648h242.0736c14.05952 0 25.48224-11.40736 25.48224-25.48224s-11.42272-25.47712-25.47712-25.47712zM384.5888 698.5984h254.80704v50.83648c0 14.11584-11.52 25.6-25.6768 25.6H410.29632c-14.1824 0-25.7024-11.48416-25.7024-25.6v-50.8416z"  horiz-adv-x="1024" />
      
      <glyph glyph-name="image" unicode="&#59694;" d="M866.4576 793.6H157.5424C98.816 793.6 51.2 745.984 51.2 687.2576v-567.1424c0-58.7264 47.616-106.3424 106.3424-106.3424h708.9152c58.7264 0 106.3424 47.616 106.3424 106.3424V687.2576C972.8 745.984 925.184 793.6 866.4576 793.6zM157.5424 722.688h708.9152c19.5584 0 35.4304-15.872 35.4304-35.4304v-339.5584l-181.4528 181.4528-177.9712-182.8864-108.4416 108.4928-311.9104-320.4608v552.96c0 19.5584 15.872 35.4304 35.4304 35.4304z m546.56-638.0032H172.4416l262.2976 269.3632 269.3632-269.3632z m197.7856 35.4304c0-19.5584-15.872-35.4304-35.4304-35.4304h-62.3616l-212.6848 212.6848 133.2736 130.4064 180.736-180.736-3.5328-126.9248zM263.8848 510.0544a70.912 70.912 0 1 0 0 141.7728 70.912 70.912 0 0 0 0-141.824z"  horiz-adv-x="1024" />
      
      <glyph glyph-name="mergecell" unicode="&#59264;" d="M512 416c0-5.376-1.984-10.112-5.952-14.08L354.048 261.952C350.08 257.92 345.344 256 339.968 256s-10.048 1.92-14.08 5.952C321.92 265.856 320 270.656 320 275.968L320 384 224 384C206.336 384 192 398.336 192 416S206.336 448 224 448L320 448 320 556.032c0 5.376 1.92 10.048 5.952 14.08C329.92 574.016 334.656 576 339.968 576s10.048-1.984 14.08-5.952L506.048 430.08C510.016 426.048 512 421.376 512 416zM576 416c0-5.376 1.984-10.112 5.952-14.08l152-140.032C737.92 257.92 742.656 256 748.032 256s10.048 1.92 14.08 5.952C766.08 265.856 768 270.656 768 275.968L768 384l96 0C881.664 384 896 398.336 896 416S881.664 448 864 448L768 448 768 556.032c0 5.376-1.92 10.048-5.952 14.08C758.08 574.016 753.344 576 748.032 576s-10.048-1.984-14.08-5.952L581.952 430.08C577.984 426.048 576 421.376 576 416zM448 768l0-128 64 0L512 768c0 35.392-28.672 64-64 64l0 0L128 832C92.672 832 64 803.392 64 768l0-704c0-35.392 28.672-64 64-64l320 0c35.328 0 64 28.608 64 64l0 128L448 192l0-128L128 64 128 768 448 768M640 768l320 0 0-704-320 0 0 128L576 192l0-128c0-35.392 28.608-64 64-64l320 0c35.392 0 64 28.608 64 64L1024 768c0 35.392-28.608 64-64 64l-320 0 0 0C604.608 832 576 803.392 576 768l0-128 64 0L640 768"  horiz-adv-x="1024" />
      
      <glyph glyph-name="addfiles" unicode="&#58891;" d="M0 864l0-35.52 0-711.104 0-35.648 36.608 0 424 0C504.256-22.016 609.28-96 731.52-96c161.216 0 292.48 127.744 292.48 284.48 0 104.832-59.008 196.096-146.24 245.504L877.76 828.48 877.76 864l-36.48 0L36.608 864 0 864zM73.152 792.896l731.456 0 0-329.984c-23.616 5.952-47.744 9.984-73.28 9.984L731.328 508.48 292.608 508.48l0-71.104 297.152 0c-33.472-18.112-61.888-42.304-85.76-71.104L292.608 366.272l0-71.168 168 0c-13.952-33.152-21.696-68.672-21.696-106.624 0-12.096 0.768-23.808 2.304-35.648l-368 0L73.152 792.896 73.152 792.896zM146.304 650.688l0-71.104 73.152 0L219.456 650.688 146.304 650.688zM292.608 650.688l0-71.104 438.912 0L731.52 650.688 292.608 650.688zM146.304 508.48l0-71.104 73.152 0L219.456 508.48 146.304 508.48zM731.52 401.728c121.536 0 219.392-95.04 219.392-213.248 0-118.272-97.728-213.376-219.392-213.376S512 70.272 512 188.48C512 306.688 609.856 401.728 731.52 401.728zM146.304 366.272l0-71.168 73.152 0L219.456 366.272 146.304 366.272zM694.848 330.688 694.848 224 585.152 224l0-71.104 109.76 0 0-106.624L768 46.272l0 106.624 109.76 0L877.76 224 768 224 768 330.688 694.848 330.688z"  horiz-adv-x="1024" />
      
      <glyph glyph-name="tablecolumnplusbefore" unicode="&#60118;" d="M554.666667 810.666667C507.733333 810.666667 469.333333 772.266667 469.333333 725.333333L469.333333 42.666667C469.333333-4.266667 507.733333-42.666667 554.666667-42.666667L938.666667-42.666667 938.666667 810.666667 554.666667 810.666667M853.333333 469.333333 853.333333 298.666667 554.666667 298.666667 554.666667 469.333333 853.333333 469.333333M853.333333 213.333333 853.333333 42.666667 554.666667 42.666667 554.666667 213.333333 853.333333 213.333333M853.333333 725.333333 853.333333 554.666667 554.666667 554.666667 554.666667 725.333333 853.333333 725.333333M384 426.666667 256 426.666667 256 554.666667 170.666667 554.666667 170.666667 426.666667 42.666667 426.666667 42.666667 341.333333 170.666667 341.333333 170.666667 213.333333 256 213.333333 256 341.333333 384 341.333333 384 426.666667Z"  horiz-adv-x="1024" />
      
      <glyph glyph-name="tablecolumnremove" unicode="&#60119;" d="M170.666667 810.666667 469.333333 810.666667C516.266667 810.666667 554.666667 772.266667 554.666667 725.333333L554.666667 42.666667C554.666667-4.266667 516.266667-42.666667 469.333333-42.666667L170.666667-42.666667C123.733333-42.666667 85.333333-4.266667 85.333333 42.666667L85.333333 725.333333C85.333333 772.266667 123.733333 810.666667 170.666667 810.666667M170.666667 469.333333 170.666667 298.666667 469.333333 298.666667 469.333333 469.333333 170.666667 469.333333M170.666667 213.333333 170.666667 42.666667 469.333333 42.666667 469.333333 213.333333 170.666667 213.333333M170.666667 725.333333 170.666667 554.666667 469.333333 554.666667 469.333333 725.333333 170.666667 725.333333M750.506667 384 640 494.506667 700.16 554.666667 810.666667 444.16 921.173333 554.666667 981.333333 494.506667 870.826667 384 981.333333 273.493333 921.173333 213.333333 810.666667 323.84 700.16 213.333333 640 273.493333 750.506667 384Z"  horiz-adv-x="1024" />
      
      <glyph glyph-name="tablerowplusbefore" unicode="&#60125;" d="M938.666667 298.666667C938.666667 345.6 900.266667 384 853.333333 384L170.666667 384C123.733333 384 85.333333 345.6 85.333333 298.666667L85.333333 0 170.666667 0 170.666667 85.333333 341.333333 85.333333 341.333333 0 426.666667 0 426.666667 85.333333 597.333333 85.333333 597.333333 0 682.666667 0 682.666667 85.333333 853.333333 85.333333 853.333333 0 938.666667 0 938.666667 298.666667M170.666667 298.666667 341.333333 298.666667 341.333333 170.666667 170.666667 170.666667 170.666667 298.666667M426.666667 298.666667 597.333333 298.666667 597.333333 170.666667 426.666667 170.666667 426.666667 298.666667M853.333333 298.666667 853.333333 170.666667 682.666667 170.666667 682.666667 298.666667 853.333333 298.666667M469.333333 469.333333 554.666667 469.333333 554.666667 597.333333 682.666667 597.333333 682.666667 682.666667 554.666667 682.666667 554.666667 810.666667 469.333333 810.666667 469.333333 682.666667 341.333333 682.666667 341.333333 597.333333 469.333333 597.333333 469.333333 469.333333Z"  horiz-adv-x="1024" />
      
      <glyph glyph-name="tablerowremove" unicode="&#60126;" d="M401.493333 341.333333 512 230.826667 622.506667 341.333333 682.666667 281.173333 572.16 170.666667 682.666667 60.16 622.506667 0 512 110.506667 401.493333 0 341.333333 60.16 451.84 170.666667 341.333333 281.173333 401.493333 341.333333M938.666667 512C938.666667 465.066667 900.266667 426.666667 853.333333 426.666667L170.666667 426.666667C123.733333 426.666667 85.333333 465.066667 85.333333 512L85.333333 640C85.333333 686.933333 123.733333 725.333333 170.666667 725.333333L853.333333 725.333333C900.266667 725.333333 938.666667 686.933333 938.666667 640L938.666667 512M170.666667 512 341.333333 512 341.333333 640 170.666667 640 170.666667 512M426.666667 512 597.333333 512 597.333333 640 426.666667 640 426.666667 512M682.666667 512 853.333333 512 853.333333 640 682.666667 640 682.666667 512Z"  horiz-adv-x="1024" />
      
      <glyph glyph-name="check-box-outline" unicode="&#58942;" d="M337.066667 465.066667l-59.733334-59.733334L469.333333 213.333333 896 640l-59.733333 59.733333-366.933334-366.933333-132.266666 132.266667zM810.666667 85.333333H213.333333V682.666667h426.666667V768H213.333333c-46.933333 0-85.333333-38.4-85.333333-85.333333v-597.333334c0-46.933333 38.4-85.333333 85.333333-85.333333h597.333334c46.933333 0 85.333333 38.4 85.333333 85.333333v341.333334h-85.333333v-341.333334z"  horiz-adv-x="1024" />
      
      <glyph glyph-name="quote-left" unicode="&#58973;" d="M421.395 350.625H258.804V467.38c0 69.278 33.415 131.049 84.866 170.222 7.883 6.002 12.43 15.407 12.43 25.315v78.631c0 19.977-18.121 35.167-37.755 31.482-144.13-27.043-254.133-153.971-254.133-305.65v-435.02c0-17.6 14.4-32 32-32h325.183c17.6 0 32 14.4 32 32V318.625c0 17.6-14.4 32-32 32zM927.333 350.625H764.742V467.38c0 69.278 33.415 131.049 84.866 170.222 7.883 6.002 12.43 15.407 12.43 25.315v78.631c0 19.977-18.121 35.167-37.755 31.482-144.13-27.043-254.133-153.971-254.133-305.65v-435.02c0-17.6 14.4-32 32-32h325.183c17.6 0 32 14.4 32 32V318.625c0 17.6-14.4 32-32 32z"  horiz-adv-x="1024" />
      
      <glyph glyph-name="table-column-plus-after" unicode="&#59600;" d="M469.333333 810.666667a85.333333 85.333333 0 0 0 85.333334-85.333334v-682.666666a85.333333 85.333333 0 0 0-85.333334-85.333334H85.333333V810.666667h384m-298.666666-341.333334v-170.666666h298.666666v170.666666H170.666667m0-256v-170.666666h298.666666v170.666666H170.666667M170.666667 725.333333v-170.666666h298.666666V725.333333H170.666667m469.333333-298.666666h128V554.666667h85.333333v-128h128v-85.333334h-128v-128h-85.333333v128h-128v85.333334z"  horiz-adv-x="1024" />
      
      <glyph glyph-name="table-row-plus-after" unicode="&#59602;" d="M938.666667 469.333333a85.333333 85.333333 0 0 0-85.333334-85.333333H170.666667a85.333333 85.333333 0 0 0-85.333334 85.333333V768h85.333334v-85.333333h170.666666V768h85.333334v-85.333333h170.666666V768h85.333334v-85.333333h170.666666V768h85.333334v-298.666667M170.666667 469.333333h170.666666V597.333333H170.666667v-128m256 0h170.666666V597.333333h-170.666666v-128m426.666666 0V597.333333h-170.666666v-128h170.666666m-384-170.666666h85.333334v-128h128v-85.333334h-128v-128h-85.333334v128H341.333333v85.333334h128v128z"  horiz-adv-x="1024" />
      
      <glyph glyph-name="delete_table" unicode="&#58894;" d="M810.666667 298.666667a213.333333 213.333333 0 1 0 0-426.666667 213.333333 213.333333 0 0 0 0 426.666667z m-106.666667-253.354667h213.333333a39.978667 39.978667 0 1 1 0 80h-213.333333a39.978667 39.978667 0 1 1 0-80zM524.373333 170.666667H384v-213.333334h156.757333c15.189333-32 35.882667-60.842667 60.885334-85.333333H213.333333a213.333333 213.333333 0 0 0-213.333333 213.333333V682.666667a213.333333 213.333333 0 0 0 213.333333 213.333333h597.333334a213.333333 213.333333 0 0 0 213.333333-213.333333v-120.448a35.968 35.968 0 0 0 0-15.104V294.4a299.434667 299.434667 0 0 1-85.333333 60.885333V512h-213.333334v-140.373333a297.472 297.472 0 0 1-85.333333-41.173334V512H384v-256h181.546667a297.472 297.472 0 0 1-41.173334-85.333333zM725.333333 597.333333h213.333334V682.666667a128 128 0 0 1-128 128h-85.333334v-213.333334z m-85.333333 0V810.666667H384v-213.333334h256zM298.666667 810.666667H213.333333a128 128 0 0 1-128-128v-85.333334h213.333334V810.666667zM85.333333 512v-256h213.333334V512H85.333333z m0-341.333333v-85.333334a128 128 0 0 1 128-128h85.333334v213.333334H85.333333z"  horiz-adv-x="1024" />
      
      <glyph glyph-name="table" unicode="&#58895;" d="M725.333333 170.666667v-213.333334h85.333334a128 128 0 0 1 128 128v85.333334h-213.333334z m-85.333333 0H384v-213.333334h256v213.333334z m85.333333 85.333333h213.333334V512h-213.333334v-256z m-85.333333 0V512H384v-256h256z m85.333333 341.333333h213.333334V682.666667a128 128 0 0 1-128 128h-85.333334v-213.333334z m-85.333333 0V810.666667H384v-213.333334h256z m384-391.552V85.333333a213.333333 213.333333 0 0 0-213.333333-213.333333H213.333333a213.333333 213.333333 0 0 0-213.333333 213.333333V682.666667a213.333333 213.333333 0 0 0 213.333333 213.333333h597.333334a213.333333 213.333333 0 0 0 213.333333-213.333333v-120.448a35.968 35.968 0 0 0 0-15.104v-326.229334a35.968 35.968 0 0 0 0-15.104zM298.666667 810.666667H213.333333a128 128 0 0 1-128-128v-85.333334h213.333334V810.666667zM85.333333 512v-256h213.333334V512H85.333333z m0-341.333333v-85.333334a128 128 0 0 1 128-128h85.333334v213.333334H85.333333z"  horiz-adv-x="1024" />
      
      <glyph glyph-name="richtextbulletedlist" unicode="&#59179;" d="M157.538462 630.153846c0-15.753846-13.784615-29.538462-29.538462-29.538461h-59.076923c-15.753846 0-29.538462 13.784615-29.538462 29.538461v59.076923C39.384615 704.984615 53.169231 718.769231 68.923077 718.769231h59.076923c15.753846 0 29.538462-13.784615 29.538462-29.538462v-59.076923z m827.076923 59.076923c0 15.753846-13.784615 29.538462-29.538462 29.538462h-689.230769c-15.753846 0-29.538462-13.784615-29.538462-29.538462v-59.076923c0-15.753846 13.784615-29.538462 29.538462-29.538461h689.230769c15.753846 0 29.538462 13.784615 29.538462 29.538461v59.076923z m-827.076923-275.692307c0 15.753846-13.784615 29.538462-29.538462 29.538461h-59.076923c-15.753846 0-29.538462-13.784615-29.538462-29.538461v-59.076924c0-15.753846 13.784615-29.538462 29.538462-29.538461h59.076923c15.753846 0 29.538462 13.784615 29.538462 29.538461v59.076924z m748.307692 0c0 15.753846-13.784615 29.538462-29.538462 29.538461h-610.461538c-15.753846 0-29.538462-13.784615-29.538462-29.538461v-59.076924c0-15.753846 13.784615-29.538462 29.538462-29.538461h610.461538c15.753846 0 29.538462 13.784615 29.538462 29.538461v59.076924z m-748.307692-275.692308c0 15.753846-13.784615 29.538462-29.538462 29.538461h-59.076923c-15.753846 0-29.538462-13.784615-29.538462-29.538461v-59.076923c0-15.753846 13.784615-29.538462 29.538462-29.538462h59.076923c15.753846 0 29.538462 13.784615 29.538462 29.538462v59.076923z m827.076923 0c0 15.753846-13.784615 29.538462-29.538462 29.538461h-689.230769c-15.753846 0-29.538462-13.784615-29.538462-29.538461v-59.076923c0-15.753846 13.784615-29.538462 29.538462-29.538462h689.230769c15.753846 0 29.538462 13.784615 29.538462 29.538462v59.076923z"  horiz-adv-x="1024" />
      
      <glyph glyph-name="richtextnumberedlist" unicode="&#59180;" d="M984.615385 768v-59.076923c0-15.753846-13.784615-29.538462-29.538462-29.538462h-531.692308c-15.753846 0-29.538462 13.784615-29.538461 29.538462v59.076923c0 15.753846 13.784615 29.538462 29.538461 29.538462h531.692308c15.753846 0 29.538462-13.784615 29.538462-29.538462zM423.384615 482.461538h354.461539c15.753846 0 29.538462 13.784615 29.538461 29.538462v59.076923c0 15.753846-13.784615 29.538462-29.538461 29.538462h-354.461539c-15.753846 0-29.538462-13.784615-29.538461-29.538462v-59.076923c0-15.753846 13.784615-29.538462 29.538461-29.538462z m531.692308-177.230769h-531.692308c-15.753846 0-29.538462-13.784615-29.538461-29.538461v-59.076923c0-15.753846 13.784615-29.538462 29.538461-29.538462h531.692308c15.753846 0 29.538462 13.784615 29.538462 29.538462v59.076923c0 15.753846-13.784615 29.538462-29.538462 29.538461z m-177.230769-196.923077h-354.461539c-15.753846 0-29.538462-13.784615-29.538461-29.538461v-59.076923c0-15.753846 13.784615-29.538462 29.538461-29.538462h354.461539c15.753846 0 29.538462 13.784615 29.538461 29.538462v59.076923c0 15.753846-13.784615 29.538462-29.538461 29.538461zM68.923077 738.461538H118.153846v-246.153846c0-15.753846 13.784615-29.538462 29.538462-29.538461h19.692307c15.753846 0 29.538462 13.784615 29.538462 29.538461V777.846154c0 21.661538-17.723077 39.384615-39.384615 39.384615H68.923077C53.169231 817.230769 39.384615 803.446154 39.384615 787.692308v-19.692308C39.384615 752.246154 53.169231 738.461538 68.923077 738.461538zM236.307692 344.615385H68.923077c-15.753846 0-29.538462-13.784615-29.538462-29.538462v-19.692308c0-15.753846 13.784615-29.538462 29.538462-29.538461H196.923077v-78.769231H78.769231c-21.661538 0-39.384615-17.723077-39.384616-39.384615v-157.538462c0-21.661538 17.723077-39.384615 39.384616-39.384615h167.384615c15.753846 0 29.538462 13.784615 29.538462 29.538461v19.692308c0 15.753846-13.784615 29.538462-29.538462 29.538462H118.153846v78.76923h118.153846c21.661538 0 39.384615 17.723077 39.384616 39.384616v157.538461c0 21.661538-17.723077 39.384615-39.384616 39.384616z"  horiz-adv-x="1024" />
      
      <glyph glyph-name="strike-through" unicode="&#58898;" d="M197.721 249.87800000000004l92 8c4.375-38.844 14.578-70.703 30.594-95.594 16-24.891 40.859-45.016 74.578-60.375 33.703-15.359 71.625-23.031 113.766-23.031 37.421 0 70.453 5.813 99.109 17.469s49.969 27.625 63.969 47.938c13.984 20.297 20.984 42.313 20.984 66.047 0 24.063-6.797 45.094-20.359 63.063-13.578 17.969-35.875 33.078-66.891 45.359-19.891 8.063-63.891 20.594-132 37.609-68.109 17-115.766 33.063-142.969 48.188-35.266 19.344-61.547 43.344-78.844 72s-25.938 60.734-25.938 96.25c0 39.031 10.609 75.5 31.828 109.438s52.188 59.688 92.938 77.266 86.047 26.375 135.891 26.375c54.89 0 103.296-9.234 145.234-27.688 41.922-18.469 74.172-45.625 96.734-81.484 22.563-35.875 34.688-76.484 36.375-121.828l-94-7c-5.063 48.469-22.188 85.094-51.344 109.859-29.156 24.75-72.234 37.141-129.218 37.141-59.344 0-102.594-11.313-129.734-33.938s-40.703-49.875-40.703-81.781c0-27.719 9.609-50.516 28.828-68.391 18.875-17.891 68.188-36.219 147.938-54.984 79.734-18.766 134.406-35.156 164.031-49.156 43.063-20.672 74.875-46.859 95.406-78.547 20.531-31.703 30.797-68.219 30.797-109.547 0-40.984-11.281-79.609-33.813-115.859-22.547-36.25-54.938-64.453-97.156-84.594-42.234-20.125-89.766-30.203-142.578-30.203-66.968 0-123.093 10.219-168.343 30.641s-80.75 51.141-106.484 92.172c-25.751 41.013-39.282 87.404-40.626 139.185zM130 414.729h752v-61.459H130z"  horiz-adv-x="1024" />
      
      <glyph glyph-name="text-align-center" unicode="&#58905;" d="M170.666667 341.333333h682.666666a42.666667 42.666667 0 0 0 0-85.333333H170.666667a42.666667 42.666667 0 0 0 0 85.333333z m0 341.333334h682.666666a42.666667 42.666667 0 0 0 0-85.333334H170.666667a42.666667 42.666667 0 1 0 0 85.333334z m85.333333-170.666667h512a42.666667 42.666667 0 0 0 0-85.333333H256a42.666667 42.666667 0 0 0 0 85.333333z m0-341.333333h512a42.666667 42.666667 0 0 0 0-85.333334H256a42.666667 42.666667 0 0 0 0 85.333334z"  horiz-adv-x="1024" />
      
      <glyph glyph-name="text-align-right" unicode="&#58907;" d="M170.666667 341.333333h682.666666a42.666667 42.666667 0 0 0 0-85.333333H170.666667a42.666667 42.666667 0 0 0 0 85.333333z m0 341.333334h682.666666a42.666667 42.666667 0 0 0 0-85.333334H170.666667a42.666667 42.666667 0 1 0 0 85.333334z m170.666666-170.666667h512a42.666667 42.666667 0 0 0 0-85.333333H341.333333a42.666667 42.666667 0 0 0 0 85.333333z m0-341.333333h512a42.666667 42.666667 0 0 0 0-85.333334H341.333333a42.666667 42.666667 0 0 0 0 85.333334z"  horiz-adv-x="1024" />
      
      <glyph glyph-name="text-align-left" unicode="&#58908;" d="M170.666667 341.333333h682.666666a42.666667 42.666667 0 0 0 0-85.333333H170.666667a42.666667 42.666667 0 0 0 0 85.333333z m0 341.333334h682.666666a42.666667 42.666667 0 0 0 0-85.333334H170.666667a42.666667 42.666667 0 1 0 0 85.333334z m0-170.666667h512a42.666667 42.666667 0 0 0 0-85.333333H170.666667a42.666667 42.666667 0 0 0 0 85.333333z m0-341.333333h512a42.666667 42.666667 0 0 0 0-85.333334H170.666667a42.666667 42.666667 0 0 0 0 85.333334z"  horiz-adv-x="1024" />
      
      <glyph glyph-name="italic" unicode="&#59284;" d="M640 42.666667H298.666667v85.333333h124.885333l90.282667 512H384V725.333333h341.333333v-85.333333h-124.885333l-90.282667-512H640z"  horiz-adv-x="1024" />
      
      <glyph glyph-name="codeblock" unicode="&#59713;" d="M938.666667 392.106667v-16.213334a32.853333 32.853333 0 0 0-9.386667-22.613333l-176.64-176.213333a21.333333 21.333333 0 0 0-30.293333 0l-30.293334 30.293333a20.906667 20.906667 0 0 0 0 29.866667L839.253333 384l-147.2 146.773333a21.333333 21.333333 0 0 0 0 30.293334l30.293334 29.866666a21.333333 21.333333 0 0 0 30.293333 0l176.64-176.213333a32 32 0 0 0 9.386667-22.613333zM184.746667 384l146.773333 146.773333a20.906667 20.906667 0 0 1 0 29.866667l-30.293333 30.293333a21.333333 21.333333 0 0 1-30.293334 0l-176.213333-176.213333a32.853333 32.853333 0 0 1-9.386667-22.613333v-16.213334a32 32 0 0 1 9.386667-22.613333l176.64-176.213333a21.333333 21.333333 0 0 1 30.293333 0l30.293334 29.866666a21.333333 21.333333 0 0 1 0 30.293334z m469.333333 325.546667L612.693333 725.333333a22.186667 22.186667 0 0 1-27.733333-12.8L358.4 85.33333300000004a21.333333 21.333333 0 0 1 12.8-27.306666l40.106667-14.506667a21.76 21.76 0 0 1 27.306666 12.8L665.173333 682.666667a21.333333 21.333333 0 0 1-12.8 26.88z"  horiz-adv-x="1024" />
      
      <glyph glyph-name="bold" unicode="&#61041;" d="M341.333333 426.666667h192a106.666667 106.666667 0 1 1 0 213.333333H341.333333v-213.333333z m426.666667-192a192 192 0 0 0-192-192H256V725.333333h277.333333a192 192 0 0 0 138.922667-324.522666A191.914667 191.914667 0 0 0 768 234.666667zM341.333333 341.333333v-213.333333h234.666667a106.666667 106.666667 0 1 1 0 213.333333H341.333333z"  horiz-adv-x="1024" />
      
      <glyph glyph-name="code" unicode="&#58975;" d="M368.64 672.853333a42.666667 42.666667 0 0 1-60.16-5.546666l-213.333333-256a42.666667 42.666667 0 0 1 0-54.186667l206.08-256a42.666667 42.666667 0 0 1 33.28-15.786667 42.666667 42.666667 0 0 1 33.28 69.546667L183.04 384l191.146667 228.693333a42.666667 42.666667 0 0 1-5.546667 60.16zM929.28 410.88l-203.946667 256a42.666667 42.666667 0 0 1-60.16 6.4 42.666667 42.666667 0 0 1-6.4-60.16L840.96 384l-191.146667-229.12a42.666667 42.666667 0 0 1 5.546667-60.16A42.666667 42.666667 0 0 1 682.666667 85.33333300000004a42.666667 42.666667 0 0 1 32.853333 15.36l213.333333 256a42.666667 42.666667 0 0 1 0.426667 54.186667z"  horiz-adv-x="1024" />
      
      <glyph glyph-name="text-bgcolor" unicode="&#59060;" d="M170.666667 810.666667h682.666666a85.333333 85.333333 0 0 0 85.333334-85.333334v-682.666666a85.333333 85.333333 0 0 0-85.333334-85.333334H170.666667a85.333333 85.333333 0 0 0-85.333334 85.333334V725.333333a85.333333 85.333333 0 0 0 85.333334 85.333334z m0-85.333334v-682.666666h682.666666V725.333333H170.666667z m460.8-469.333333H392.533333L341.333333 128H256l213.333333 512h85.333334l213.333333-512h-85.333333l-51.2 128z m-34.133334 85.333333l-85.333333 213.333334-85.333333-213.333334h170.666666z"  horiz-adv-x="1024" />
      
      <glyph glyph-name="text-color" unicode="&#59061;" d="M256 128h512a85.333333 85.333333 0 0 0 85.333333-85.333333v-42.666667a85.333333 85.333333 0 0 0-85.333333-85.333333H256a85.333333 85.333333 0 0 0-85.333333 85.333333v42.666667a85.333333 85.333333 0 0 0 85.333333 85.333333z m0-85.333333v-42.666667h512v42.666667H256z m401.578667 341.333333H366.421333L298.666667 213.333333H213.333333l256.128 640H554.666667l256-640h-85.333334l-67.754666 170.666667z m-33.877334 85.333333L512 750.634667 400.298667 469.333333h223.402666z"  horiz-adv-x="1024" />
      
      <glyph glyph-name="text-underline" unicode="&#59062;" d="M725.333333 810.666667h85.333334v-384c0-188.501333-110.165333-298.666667-298.666667-298.666667s-298.666667 110.165333-298.666667 298.666667V810.666667h85.333334v-384c0-141.397333 71.936-213.333333 213.333333-213.333334s213.333333 71.936 213.333333 213.333334V810.666667zM170.666667-42.666667v85.333334h682.666666v-85.333334H170.666667z"  horiz-adv-x="1024" />
      
      <glyph glyph-name="drag" unicode="&#58888;" d="M430 630m-50 0a50 50 0 1 1 100 0 50 50 0 1 1-100 0ZM430 466m-50 0a50 50 0 1 1 100 0 50 50 0 1 1-100 0ZM430 302m-50 0a50 50 0 1 1 100 0 50 50 0 1 1-100 0ZM430 138m-50 0a50 50 0 1 1 100 0 50 50 0 1 1-100 0ZM594 630m-50 0a50 50 0 1 1 100 0 50 50 0 1 1-100 0ZM594 466m-50 0a50 50 0 1 1 100 0 50 50 0 1 1-100 0ZM594 302m-50 0a50 50 0 1 1 100 0 50 50 0 1 1-100 0ZM594 138m-50 0a50 50 0 1 1 100 0 50 50 0 1 1-100 0Z"  horiz-adv-x="1024" />
      
      <glyph glyph-name="IconPopoverMarkdown" unicode="&#58885;" d="M854.592 607.36L639.424 822.656A32 32 0 0 1 616.768 832H192a32 32 0 0 1-32-32v-832a32 32 0 0 1 32-32h640a32 32 0 0 1 32 32V584.704a32.192 32.192 0 0 1-9.408 22.72z m-64.384-37.376h-188.16v188.16l188.16-188.16z m1.792-561.984h-560V760h302.016V544c0-23.168 18.752-41.984 41.984-41.984h216v-494.016zM428.992 414.784a11.904 11.904 0 0 1-11.008 7.232h-35.008a12.032 12.032 0 0 1-11.968-12.032v-272c0-6.592 5.376-11.968 11.968-11.968h27.136a12.032 12.032 0 0 1 11.968 11.968V313.92l66.816-150.208c1.92-4.288 6.208-7.104 11.008-7.104h24.128a12.16 12.16 0 0 1 10.944 7.04l66.816 150.656v-176.32c0-6.592 5.44-11.968 12.032-11.968h27.2a12.032 12.032 0 0 1 11.968 11.968v272a12.032 12.032 0 0 1-11.968 12.032h-34.752a11.904 11.904 0 0 1-10.944-7.232l-83.136-190.976-83.2 190.976z"  horiz-adv-x="1024" />
      
      <glyph glyph-name="IconPopoverHttp" unicode="&#58886;" d="M854.592 607.36L639.424 822.656A32 32 0 0 1 616.768 832H192a32 32 0 0 1-32-32v-832a32 32 0 0 1 32-32h640a32 32 0 0 1 32 32V584.704a32.192 32.192 0 0 1-9.408 22.72z m-64.384-37.376h-188.16v188.16l188.16-188.16z m1.792-561.984h-560V760h302.016V544c0-23.168 18.752-41.984 41.984-41.984h216v-494.016zM504 278.016H320a8 8 0 0 1-8-8v-48c0-4.416 3.584-8 8-8h184A8 8 0 0 1 512 222.016v48a8 8 0 0 1-8 8zM312 406.016v-48c0-4.416 3.584-8 8-8h384a8 8 0 0 1 8 8v48A8 8 0 0 1 704 414.016H320a8 8 0 0 1-8-8z"  horiz-adv-x="1024" />
      
      <glyph glyph-name="IconPopoverCommon" unicode="&#58887;" d="M854.592 607.36L639.424 822.656A32 32 0 0 1 616.768 832H192a32 32 0 0 1-32-32v-832a32 32 0 0 1 32-32h640a32 32 0 0 1 32 32V584.704a32.192 32.192 0 0 1-9.408 22.72z m-64.384-37.376h-188.16v188.16l188.16-188.16z m1.792-561.984h-560V760h302.016V544c0-23.168 18.752-41.984 41.984-41.984h216v-494.016zM504 278.016H320a8 8 0 0 1-8-8v-48c0-4.416 3.584-8 8-8h184A8 8 0 0 1 512 222.016v48a8 8 0 0 1-8 8zM312 406.016v-48c0-4.416 3.584-8 8-8h384a8 8 0 0 1 8 8v48A8 8 0 0 1 704 414.016H320a8 8 0 0 1-8-8z"  horiz-adv-x="1024" />
      
      <glyph glyph-name="Icon32Plus" unicode="&#58880;" d="M541.090909 733.090909c5.166545 0 7.749818-2.583273 7.749818-7.749818v-304.477091H837.818182c5.166545 0 7.749818-2.606545 7.749818-7.773091v-58.181818c0-5.166545-2.56-7.749818-7.749818-7.749818H548.840727v-304.500364c0-5.166545-2.56-7.749818-7.749818-7.749818h-58.181818c-5.166545 0-7.749818 2.583273-7.749818 7.749818V347.159273H186.181818c-5.166545 0-7.749818 2.56-7.749818 7.749818v58.181818c0 5.166545 2.56 7.749818 7.749818 7.749818l288.977455 0.023273V725.341091c0 5.166545 2.56 7.749818 7.749818 7.749818h58.181818z"  horiz-adv-x="1024" />
      
      <glyph glyph-name="IconBlockClose" unicode="&#58881;" d="M563.84 384l262.4 312.96a7.936 7.936 0 0 1-6.016 13.056h-79.808a16.32 16.32 0 0 1-12.288-5.76L511.616 446.272 295.04 704.32a16 16 0 0 1-12.288 5.696H203.008a7.936 7.936 0 0 1-6.08-13.12L459.392 384l-262.464-312.96a7.936 7.936 0 0 1 6.08-13.056h79.808a16.32 16.32 0 0 1 12.288 5.76l216.512 258.048 216.512-258.112a16 16 0 0 1 12.288-5.696h79.808a7.936 7.936 0 0 1 6.08 13.12L563.776 384z"  horiz-adv-x="1024" />
      
      <glyph glyph-name="IconBlockMove" unicode="&#58882;" d="M952 104H72A8 8 0 0 1 64 96v-56c0-4.416 3.584-8 8-8h880a8 8 0 0 1 8 8V96a8 8 0 0 1-8 8z m0 632H72A8 8 0 0 1 64 728V672c0-4.416 3.584-8 8-8h880A8 8 0 0 1 960 672v56a8 8 0 0 1-8 8z m-104-500.032a16 16 0 0 1 16 16V516.096a16 16 0 0 1-16 16H176a16 16 0 0 1-16-16v-264c0-8.832 7.168-16 16-16h672z m-616 224h560v-152h-560V460.032z"  horiz-adv-x="1024" />
      
      <glyph glyph-name="IconCaretDown" unicode="&#58884;" d="M750.848 512H273.066667c-14.336 0-22.272-15.701333-13.397334-26.453333l238.762667-287.402667c6.826667-8.192 20.053333-8.192 26.965333 0L764.245333 485.546667c8.874667 10.752 0.853333 26.453333-13.397333 26.453333z"  horiz-adv-x="1024" />
      
      <glyph glyph-name="IconPopoverAlert" unicode="&#58889;" d="M512 832a448 448 0 1 0 0-896A448 448 0 0 0 512 832z m0-76.032a372.032 372.032 0 0 1 0-743.936A372.032 372.032 0 0 1 512 755.968zM512 256a48 48 0 1 0 0-96 48 48 0 0 0 0 96z m24 352c4.416 0 8-3.584 8-8v-272A8 8 0 0 0 536 320h-48a8 8 0 0 0-8 8v272c0 4.416 3.584 8 8 8z"  horiz-adv-x="1024" />
      
      <glyph glyph-name="IconPopoverChange" unicode="&#58890;" d="M168 391.808A343.232 343.232 0 0 0 268.608 627.2a342.208 342.208 0 0 0 243.328 100.8A341.376 341.376 0 0 0 754.944 627.2c9.92-9.92 19.2-20.416 27.776-31.36l-60.16-47.04a8 8 0 0 1 2.944-14.08l175.744-43.008a8 8 0 0 1 9.92 7.68l0.768 180.928a7.936 7.936 0 0 1-12.928 6.272l-56.32-44.096a419.904 419.904 0 0 1-750.72-250.24 8 8 0 0 1 8-8.256H160a8 8 0 0 1 8 7.808zM924.032 384H864a8 8 0 0 1-8-7.808 342.144 342.144 0 0 0-100.608-235.392 342.4 342.4 0 0 0-243.264-100.8 342.208 342.208 0 0 0-271.04 132.224l60.16 46.976a8 8 0 0 1-2.944 14.08l-175.68 43.008a8 8 0 0 1-9.92-7.68l-0.704-180.992c0-6.72 7.68-10.496 12.928-6.336l56.32 44.16a419.904 419.904 0 0 1 750.72 250.368 8 8 0 0 1-8 8.192z"  horiz-adv-x="1024" />
      
      <glyph glyph-name="IconPopoverConfig" unicode="&#58892;" d="M320 672H254.016v56a8 8 0 0 1-8 8H193.92a8 8 0 0 1-8-8V672H120a8 8 0 0 1-8-8v-560c0-4.416 3.584-8 8-8h65.984v-56c0-4.416 3.584-8 8-8h52.032a8 8 0 0 1 8 8V96H320a8 8 0 0 1 8 8v560A8 8 0 0 1 320 672z m-60.032-508.032h-80V604.096h80v-440z m644.032 436.032h-65.984v96A8 8 0 0 1 830.016 704h-52.032a8 8 0 0 1-8-8v-96H704a8 8 0 0 1-8-8v-416c0-4.416 3.584-8 8-8h65.984v-96c0-4.416 3.584-8 8-8h52.032a8 8 0 0 1 8 8v96h65.984a8 8 0 0 1 8 8v416a8 8 0 0 1-8 8z m-60.032-364.032h-80V532.096h80v-296z m-231.936 256H545.92V664.064a8 8 0 0 1-8 8h-51.968a8 8 0 0 1-8-8v-172.032H411.968a8 8 0 0 1-8-8v-200c0-4.352 3.648-7.936 8-7.936H478.08v-172.032c0-4.416 3.584-8 8-8h51.968a8 8 0 0 1 8 8V276.032h65.984a8 8 0 0 1 8.064 7.936V484.032a8 8 0 0 1-8.064 8z m-60.032-144.96c0-1.6-1.28-3.008-3.008-3.008H475.008a3.008 3.008 0 0 0-3.008 3.008V420.992c0 1.6 1.28 3.008 3.008 3.008h73.984c1.6 0 3.008-1.28 3.008-3.008v-73.984z"  horiz-adv-x="1024" />
      
      <glyph glyph-name="IconPopoverExit" unicode="&#58893;" d="M868.032 163.968h-70.336a15.744 15.744 0 0 1-12.288-5.76 353.856 353.856 0 0 0-273.024-128.192 352.768 352.768 0 0 0-250.56 103.68 353.28 353.28 0 0 0-76.032 112.512A350.528 350.528 0 0 0 158.08 384 352.32 352.32 0 0 0 261.76 634.24a353.856 353.856 0 0 0 250.56 103.744 353.856 353.856 0 0 0 273.024-128.192c3.008-3.712 7.616-5.76 12.288-5.76h70.272c6.336 0 10.24 6.976 6.72 12.288A430.208 430.208 0 0 1 511.36 814.016 429.504 429.504 0 0 1 81.984 379.52a430.272 430.272 0 0 1 430.4-425.6 430.272 430.272 0 0 1 362.304 197.76 8 8 0 0 1-6.656 12.224z m88.896 226.304l-141.952 112a8 8 0 0 1-12.992-6.272v-76.032H488a8 8 0 0 1-8-8v-56c0-4.352 3.584-7.936 8-7.936h313.984V272c0-6.72 7.808-10.496 12.992-6.272l141.952 112a8 8 0 0 1 0 12.544z"  horiz-adv-x="1024" />
      
      <glyph glyph-name="IconPopoverNav" unicode="&#58896;" d="M342.016 424h341.952c0.448 0 0.96 0 1.28 0.128a7.936 7.936 0 0 1 6.656 9.152l-40.192 248a7.936 7.936 0 0 1-7.936 6.72H382.208a7.936 7.936 0 0 1-7.936-6.72L334.08 433.28l-0.064-1.28c0-4.416 3.584-8 8-8z m91.2 196.032H592.64l20.672-128h-200.96l20.8 128z m2.496-282.752a7.936 7.936 0 0 1-7.936 6.72H166.208a7.936 7.936 0 0 1-7.936-6.72l-40.192-248-0.064-1.28c0-4.416 3.584-8 8-8h341.952c0.448 0 0.96 0 1.28 0.128a7.936 7.936 0 0 1 6.656 9.152L435.712 337.28zM196.48 148.032l20.736 128h159.488l20.672-128H196.48z m709.44-58.752l-40.192 248a7.936 7.936 0 0 1-7.936 6.72H596.224a7.936 7.936 0 0 1-7.936-6.72l-40.192-248c-0.128-0.384-0.128-0.896-0.128-1.28 0-4.416 3.648-8 8.064-8h341.952c0.384 0 0.896 0 1.28 0.128a8.064 8.064 0 0 1 6.656 9.152z m-279.424 58.752l20.736 128h159.488l20.672-128H626.56z"  horiz-adv-x="1024" />
      
      <glyph glyph-name="IconPopoverPlay" unicode="&#58897;" d="M512 832a448 448 0 1 1 0-896A448 448 0 0 1 512 832z m0-820.032A372.032 372.032 0 0 0 512 756.032a372.032 372.032 0 0 0 0-744.064zM719.36 396.928L423.36 611.84a15.872 15.872 0 0 1-25.28-12.928v-429.952c0-13.12 14.784-20.48 25.28-12.928l296.128 215.04a15.936 15.936 0 0 1 0 25.792zM461.888 262.912V505.088L628.48 384 461.824 262.912z"  horiz-adv-x="1024" />
      
      <glyph glyph-name="IconPopoverTree" unicode="&#58899;" d="M672 464a240 240 0 0 1-237.312-204.032H320a27.968 27.968 0 0 0-28.032 28.032V652.032H583.04A95.936 95.936 0 0 1 768 688a96 96 0 0 1-184.96 36.032H112v-72.064h108.032V288c0-55.232 44.8-100.032 99.968-100.032h114.688A240 240 0 1 1 672 464z m128-265.984a8 8 0 0 0-8-8h-86.016v-86.016a8 8 0 0 0-8-8h-51.968a8 8 0 0 0-8 8v86.016H552a8 8 0 0 0-8 8v51.968c0 4.416 3.584 8 8 8h86.016V344c0 4.416 3.584 8 8 8h51.968c4.416 0 8-3.584 8-8v-86.016h86.016c4.416 0 8-3.584 8-8v-51.968z"  horiz-adv-x="1024" />
      
      <glyph glyph-name="IconPopoverTemplate" unicode="&#58900;" d="M880 784H144a32 32 0 0 1-32-32v-736a32 32 0 0 1 32-32h736a32 32 0 0 1 32 32V752a32 32 0 0 1-32 32zM184 712H320v-656H184V712z m656-656H384V512h456v-456zM384 576V712h456V576H384z"  horiz-adv-x="1024" />
      
      <glyph glyph-name="IconPopoverUpload" unicode="&#58901;" d="M400 578.304h73.92v-338.304c0-4.416 3.584-8 8-8h59.968a8 8 0 0 1 8 8V578.304H624c6.72 0 10.368 7.68 6.272 12.928l-112 141.76a8 8 0 0 1-12.544 0L393.728 591.36a8.064 8.064 0 0 1 6.272-12.992z m478.016-308.288h-60.032a8 8 0 0 1-8-8v-153.984H214.016V262.016a8 8 0 0 1-8 8H145.92a8 8 0 0 1-8-8V64a32 32 0 0 1 32-32h684.032a32 32 0 0 1 32 32V262.016a8 8 0 0 1-8 8z"  horiz-adv-x="1024" />
      
      <glyph glyph-name="IconPopoverUser" unicode="&#58902;" d="M858.496 132.416a374.016 374.016 0 0 1-80.64 119.488 375.68 375.68 0 0 1-119.488 80.64l-1.152 0.448a247.936 247.936 0 1 1-290.432-0.128l-1.152-0.448c-44.8-18.944-85.056-46.016-119.552-80.64a375.68 375.68 0 0 1-110.08-257.6 8 8 0 0 1 8-8.192h60.032a8 8 0 0 1 7.936 7.808 298.112 298.112 0 0 0 87.808 204.288A298.048 298.048 0 0 0 512 286.08c80.192 0 155.52-31.232 212.224-87.936a298.112 298.112 0 0 0 87.744-204.288 7.936 7.936 0 0 1 8.064-7.808h59.968c4.48 0 8.128 3.712 8 8.192a372.672 372.672 0 0 1-29.44 138.24zM512 361.984a170.88 170.88 0 0 0-121.6 50.432 170.88 170.88 0 0 0-50.368 121.6c0 45.888 17.92 89.088 50.368 121.6A170.88 170.88 0 0 0 512 705.92c45.888 0 89.088-17.92 121.6-50.368a170.88 170.88 0 0 0 50.368-121.6 170.88 170.88 0 0 0-50.368-121.6 170.88 170.88 0 0 0-121.6-50.432z"  horiz-adv-x="1024" />
      
      <glyph glyph-name="IconPopoverSetting" unicode="&#58903;" d="M924.8 270.272l-65.472 56a359.616 359.616 0 0 1 0 115.648l65.472 56a32 32 0 0 1 9.28 35.2l-0.896 2.56a443.712 443.712 0 0 1-79.68 137.92l-1.792 2.112a32.128 32.128 0 0 1-35.136 9.472l-81.28-28.864a352.384 352.384 0 0 1-99.712 57.6l-15.68 84.992a32 32 0 0 1-25.792 25.664l-2.688 0.512a451.776 451.776 0 0 1-159.04 0l-2.688-0.512a32 32 0 0 1-25.792-25.664l-15.808-85.44a351.872 351.872 0 0 1-99.008-57.344l-81.92 29.056a32 32 0 0 1-35.072-9.472l-1.792-2.112A446.08 446.08 0 0 1 90.624 535.68l-0.896-2.56a32.128 32.128 0 0 1 9.28-35.2l66.304-56.64a351.872 351.872 0 0 1 0-114.176l-66.304-56.576a32 32 0 0 1-9.28-35.2l0.896-2.624A444.864 444.864 0 0 1 170.24 94.72l1.792-2.112a32.128 32.128 0 0 1 35.072-9.472l81.92 29.12a349.44 349.44 0 0 1 99.008-57.408l15.808-85.44a32 32 0 0 1 25.792-25.664l2.688-0.512a449.408 449.408 0 0 1 159.04 0l2.688 0.512a32 32 0 0 1 25.792 25.664l15.68 85.056a350.016 350.016 0 0 1 99.712 57.6l81.28-28.928a32 32 0 0 1 35.136 9.472l1.792 2.112a446.08 446.08 0 0 1 79.68 137.92l0.896 2.56a31.872 31.872 0 0 1-9.28 35.008zM788.288 430.08a283.008 283.008 0 0 0 0-92.16l-6.592-40.128 74.688-63.872c-11.264-26.112-25.6-50.688-42.56-73.6l-92.8 32.896-31.424-25.792c-23.872-19.648-50.56-35.008-79.36-45.824l-38.016-14.272-17.92-97.024c-28.16-3.2-56.832-3.2-84.992 0l-17.92 97.216-37.76 14.464a279.744 279.744 0 0 0-78.72 45.696l-31.36 25.92-93.44-33.216a377.856 377.856 0 0 0-42.624 73.6l75.52 64.512-6.528 40a275.648 275.648 0 0 0 0 91.008l6.528 40-75.52 64.512c11.328 26.112 25.6 50.688 42.624 73.6l93.44-33.216 31.36 25.92c23.68 19.456 50.176 34.88 78.72 45.696l37.888 14.272 17.92 97.216c28.032 3.2 56.768 3.2 84.928 0l17.92-97.024 38.08-14.272c28.736-10.816 55.424-26.24 79.36-45.824l31.36-25.792 92.8 32.896c17.024-22.912 31.232-47.616 42.624-73.6l-74.688-63.872 6.464-39.936zM512 569.984a176 176 0 1 1 0-352 176 176 0 0 1 0 352zM591.232 314.88c-21.248-21.12-49.28-32.832-79.232-32.832-29.888 0-57.984 11.712-79.168 32.832a111.616 111.616 0 0 0-32.832 79.168c0 29.888 11.712 58.048 32.832 79.232 21.12 21.184 49.28 32.768 79.168 32.768 29.888 0 57.984-11.584 79.232-32.768 21.12-21.248 32.768-49.28 32.768-79.232 0-29.888-11.712-57.984-32.768-79.168z"  horiz-adv-x="1024" />
      
      <glyph glyph-name="IconRadioLock-N" unicode="&#58904;" d="M832 432h-68.032v224a128 128 0 0 1-128 128H388.032a128 128 0 0 1-128-128v-224H192a32 32 0 0 1-32-32v-384a32 32 0 0 1 32-32h640a32 32 0 0 1 32 32v384a32 32 0 0 1-32 32z m-292.032-236.992v-52.992a8 8 0 0 0-7.936-8h-40.064a8 8 0 0 0-8 8v52.992A47.936 47.936 0 0 0 512 282.048a48 48 0 0 0 28.032-87.04z m152.064 236.992H331.904v224c0 30.912 25.152 56 56 56h248c30.912 0 56.064-25.088 56.064-56v-224z"  horiz-adv-x="1024" />
      
      <glyph glyph-name="IconRadioPublic-N" unicode="&#58906;" d="M942.208 409.792c-94.784 199.68-238.08 300.16-430.208 300.16-192.192 0-335.36-100.48-430.208-300.224a60.288 60.288 0 0 1 0-51.52c94.784-199.68 238.08-300.16 430.208-300.16 192.192 0 335.36 100.48 430.208 300.224a60.288 60.288 0 0 1 0 51.52zM512 129.984c-161.28 0-279.424 81.792-362.688 254.016C232.576 556.16 350.72 638.016 512 638.016S791.424 556.16 874.688 384c-83.2-172.16-201.28-254.016-362.688-254.016zM507.968 560a176 176 0 1 1 0-352 176 176 0 0 1 0 352z m0-288a112 112 0 1 0 0 224 112 112 0 1 0 0-224z"  horiz-adv-x="1024" />
      
      <glyph glyph-name="IconCaretRight" unicode="&#59322;" d="M384 622.848L384 145.06666700000005c0-14.33600001 15.701333-22.272 26.453333-13.397334l287.402667 238.762667c8.192 6.826667 8.192 20.053333 0 26.965333L410.453333 636.2453330000001c-10.752 8.874667-26.453333 0.853333-26.453333-13.397333z"  horiz-adv-x="1024" />
      
    </font>
</defs>
</svg>
