<?xml version="1.0" encoding="utf-8"?>
<!-- Generator: Adobe Illustrator 26.2.1, SVG Export Plug-In . SVG Version: 6.00 Build 0)  -->
<svg version="1.1" id="图层_1" xmlns="http://www.w3.org/2000/svg" xmlns:xlink="http://www.w3.org/1999/xlink" x="0px" y="0px"
	 viewBox="0 0 134.19 134.19" style="enable-background:new 0 0 134.19 134.19;" xml:space="preserve">
<style type="text/css">
	.st0{fill:#1A6DFF;}
	.st1{fill:#FFFFFF;}
</style>
<g>
	<g>
		<path class="st0" d="M104.33,134.19H29.87C13.37,134.19,0,120.82,0,104.33V29.87C0,13.37,13.37,0,29.87,0h74.46
			c16.49,0,29.87,13.37,29.87,29.87v74.46C134.19,120.82,120.82,134.19,104.33,134.19z"/>
	</g>
	<g>
		<path class="st1" d="M82.54,100.76L68.58,71.19h-2.97l-13.96,29.57C43.91,96.13,38.4,88.13,37.17,78.8H29.5
			c1.29,12.39,8.57,23,18.88,28.88c2.51,1.43,5.19,2.58,8.02,3.41l3.28-7l7.41-15.81l7.41,15.81l3.28,7
			c2.82-0.83,5.51-1.98,8.02-3.41c10.32-5.89,17.59-16.5,18.88-28.88h-7.66C95.79,88.13,90.29,96.13,82.54,100.76z"/>
		<path class="st1" d="M101.75,27.2L86.54,42.41c-5.68-3.42-12.33-5.38-19.44-5.38s-13.76,1.96-19.44,5.38L32.44,27.2H29.3v44h7.83
			c1.8-14.94,14.55-26.56,29.97-26.56c15.42,0,28.17,11.62,29.97,26.56h7.83v-44H101.75z M41.5,47.02
			c-1.68,1.54-3.22,3.24-4.59,5.06v-9.66L41.5,47.02L41.5,47.02z M97.29,52.08c-1.38-1.82-2.91-3.52-4.59-5.06v0l4.59-4.59V52.08z"
			/>
	</g>
</g>
</svg>
