<?xml version="1.0" encoding="utf-8"?>
<!-- Generator: Adobe Illustrator 26.2.1, SVG Export Plug-In . SVG Version: 6.00 Build 0)  -->
<svg version="1.1" id="图层_1" xmlns="http://www.w3.org/2000/svg" xmlns:xlink="http://www.w3.org/1999/xlink" x="0px" y="0px"
	 viewBox="0 0 1121.22 337.34" style="enable-background:new 0 0 1121.22 337.34;" xml:space="preserve">
<style type="text/css">
	.st0{fill:#27272a;}
	.st1{fill:#27272a;}
	.st2{fill:#006bff;}
</style>
<g>
	<g>
		<polygon class="st0" points="445.4,65.41 439.24,65.41 433.08,65.41 347.85,245.92 387.83,245.92 439.24,136.31 490.65,245.92
			530.62,245.92 		"/>
		<path class="st0" d="M688.84,65.41h31.38v32.81h-31.38V65.41z M688.84,132.57h31.38v113.35h-31.38V132.57z"/>
		<path class="st0" d="M665.91,161.06c-5.23-8.76-12.35-15.7-21.36-20.82c-9-5.11-18.83-7.67-29.46-7.67
			c-7.26,0-14.18,1.42-20.74,4.26c-6.57,2.84-12.32,6.81-17.26,11.92v-16.17H545.7v188.98h31.38v-91.86
			c4.94,5.17,10.7,9.16,17.26,11.99c6.57,2.82,13.48,4.24,20.74,4.24c10.64,0,20.46-2.53,29.46-7.59c9-5.06,16.12-11.97,21.36-20.71
			c5.23-8.75,7.85-17.58,7.85-27.95C673.76,179.36,671.14,169.82,665.91,161.06z M631.93,209.66c-5.75,5.61-12.8,8.41-21.16,8.41
			c-8.53,0-15.67-2.8-21.42-8.41c-5.83-5.69-8.75-11.87-8.75-20c0-7.96,2.92-14.79,8.75-20.47c5.75-5.85,12.88-8.77,21.42-8.77
			c8.36,0,15.41,2.93,21.16,8.77c5.83,5.69,8.75,12.51,8.75,20.47C640.68,197.79,637.76,203.97,631.93,209.66z"/>
		<g>
			<path class="st1" d="M745.28,155.26c0-16.34,4.05-31.43,12.16-45.27c8.11-13.83,19.09-24.78,32.96-32.83
				c13.86-8.05,28.98-12.07,45.36-12.07c20.51,0,39.08,6.36,55.7,19.08l-22.38,25.8c-6.65-4.3-13.9-7.06-21.77-8.28
				c-2.92-0.49-5.8-0.73-8.63-0.73c-4.95,0.08-9.69,0.77-14.23,2.07c-7.3,2.11-13.99,5.36-20.07,9.74
				c-6.08,4.38-10.97,10.29-14.65,17.72c-3.69,7.43-5.53,15.68-5.53,24.77c0,7.95,1.4,15.28,4.2,21.98c2.8,6.7,6.46,12.3,11.01,16.8
				c4.54,4.51,9.81,8.14,15.81,10.9c6.16,2.84,12.4,4.5,18.73,4.99c1.46,0.08,2.88,0.12,4.26,0.12c4.94,0,9.93-0.69,14.96-2.07
				c6.48-1.79,12.44-4.71,17.88-8.77l22.5,25.72c-16.95,13.99-36.2,20.99-57.77,20.99c-12.24,0-23.96-2.4-35.15-7.19
				c-11.19-4.79-20.82-11.23-28.88-19.31c-8.07-8.08-14.49-17.73-19.28-28.94C747.67,179.26,745.28,167.52,745.28,155.26z"/>
			<path class="st1" d="M1042.06,160.18v-27.85h22.62v-34.9h31.38v34.9h25.17v27.85h-25.17v85.73h-31.38v-85.73H1042.06z"/>
			<path class="st1" d="M1001.6,132.33v13.48c-10.44-8.98-22.74-13.48-36.9-13.48c-15.83,0-29.3,5.52-40.42,16.56
				c-11.12,11.04-16.68,24.47-16.68,40.29c0,10.29,2.54,19.78,7.61,28.49c5.07,8.71,11.99,15.59,20.76,20.65
				c8.77,5.06,18.35,7.59,28.74,7.59c14.08,0,26.38-4.52,36.9-13.55v13.55h26.39V132.33H1001.6z M988.36,209.73
				c-5.34,5.56-11.89,8.34-19.66,8.34c-7.69,0-14.32-2.78-19.9-8.34c-5.42-5.88-8.13-12.73-8.13-20.55c0-8.06,2.71-14.9,8.13-20.55
				c5.66-5.64,12.3-8.46,19.9-8.46c7.68,0,14.24,2.82,19.66,8.46c5.5,5.48,8.25,12.33,8.25,20.55
				C996.61,197.16,993.86,204.01,988.36,209.73z"/>
		</g>
	</g>
	<g>
		<path class="st2" d="M214.09,295.79l-56.13-118.88h-11.94L89.89,295.79C58.74,277.17,36.6,245,31.65,207.47H0.83
			c5.2,49.81,34.45,92.46,75.93,116.14c10.08,5.76,20.88,10.39,32.23,13.73l13.2-28.13l29.81-63.55l29.8,63.55l13.2,28.13
			c11.35-3.34,22.15-7.97,32.23-13.72c41.48-23.68,70.72-66.33,75.92-116.14h-30.81C267.39,245,245.24,277.17,214.09,295.79z"/>
		<path class="st2" d="M291.34,0l-61.16,61.17c-22.84-13.74-49.59-21.63-78.19-21.63s-55.34,7.9-78.18,21.63L12.64,0H0v176.91h31.48
			C38.72,116.84,90,70.13,151.99,70.13c61.99,0,113.27,46.71,120.51,106.78h31.48V0H291.34z M49.06,79.69
			c-6.75,6.21-12.93,13.02-18.46,20.35V61.22L49.06,79.69L49.06,79.69z M273.38,100.05c-5.53-7.33-11.72-14.15-18.46-20.35v-0.01
			l18.46-18.46V100.05z"/>
	</g>
</g>
</svg>
