<?xml version="1.0" encoding="UTF-8"?>
<svg width="88px" height="85px" viewBox="0 0 88 85" version="1.1" xmlns="http://www.w3.org/2000/svg" xmlns:xlink="http://www.w3.org/1999/xlink">
    <!-- Generator: Sketch 52.4 (67378) - http://www.bohemiancoding.com/sketch -->
    <title>Icon/Logo/007</title>
    <desc>Created with Sketch.</desc>
    <g id="Icon/Logo/007" stroke="none" stroke-width="1" fill="none" fill-rule="evenodd">
        <g id="logo007" transform="translate(44.132723, 41.400012) rotate(-20.000000) translate(-44.132723, -41.400012) translate(8.632723, 7.900012)" fill="#000000">
            <path d="M16.6968843,10.0151934 C16.5504065,10.2067763 15.6103668,11.3976269 15.2823454,11.8247366 C14.5934747,12.7217002 13.9493408,13.6095254 13.273832,14.610811 C11.4623833,17.2958648 9.65610731,20.4648411 7.80392083,24.365608 C3.95984368,32.4613634 4.62459078,43.3783252 8.24152832,49.2598499 C11.4884062,54.5396184 18.9645571,59.2618149 30.259006,62.6811457 C38.4511888,65.1612829 47.7336553,65.6829419 52.4582859,62.8255751 C57.6875672,59.6630051 62.3758189,50.1394529 63.450164,42.4331117 C64.0141477,38.387623 64.2822165,29.3328865 64.2479316,15.3238934 L56.1707912,21.6226405 L55.5551113,21.1377109 C51.8094616,18.1875151 47.5435785,15.8839595 42.7528258,14.2264281 C37.9545724,12.5663015 32.9241692,11.6561365 27.6581514,11.4961449 L26.9732714,11.4753369 L24.1664626,3.51481952 C21.162564,5.26194732 18.6750051,7.42794603 16.6968843,10.0151934 Z M66.2320636,11.2403823 L66.2409434,13.2770329 C66.3075383,28.5510594 66.0400279,38.3407223 65.4310075,42.7092621 C64.2816857,50.953416 59.3335687,61.0048494 53.4932873,64.5369407 C48.1367468,67.7764745 38.3750752,67.227885 29.6794925,64.5953464 C17.9598787,61.0472993 10.0827403,56.0718251 6.53789342,50.3075274 C2.56889854,43.8535201 1.86051026,32.2198508 5.99724418,23.5077505 C7.89230122,19.5166968 9.74825384,16.2605666 11.6158591,13.4922737 C12.3156801,12.4549509 12.983563,11.5343918 13.6961567,10.606539 C14.035464,10.1647342 14.9737095,8.9761565 15.1080612,8.8004336 C17.483958,5.69292239 20.5335148,3.15249777 24.2472708,1.18241913 L25.272918,0.638332308 L28.4052475,9.52207351 C33.6234037,9.74387781 38.6249245,10.6819104 43.4067629,12.3363577 C48.1433527,13.9751495 52.3994548,16.2252527 56.1711244,19.0861429 L66.2320636,11.2403823 Z" id="Path-2" fill-rule="nonzero"></path>
            <path d="M28.746408,37.671675 C33.164686,37.671675 36.746408,34.089953 36.746408,29.671675 C36.746408,25.253397 33.164686,21.671675 28.746408,21.671675 C24.32813,21.671675 20.746408,25.253397 20.746408,29.671675 C20.746408,34.089953 24.32813,37.671675 28.746408,37.671675 Z M28.746408,39.671675 C23.2235605,39.671675 18.746408,35.1945225 18.746408,29.671675 C18.746408,24.1488275 23.2235605,19.671675 28.746408,19.671675 C34.2692555,19.671675 38.746408,24.1488275 38.746408,29.671675 C38.746408,35.1945225 34.2692555,39.671675 28.746408,39.671675 Z" id="Oval" fill-rule="nonzero"></path>
            <path d="M47.5402604,44.5120779 C51.9585384,44.5120779 55.5402604,40.9303559 55.5402604,36.5120779 C55.5402604,32.0937999 51.9585384,28.5120779 47.5402604,28.5120779 C43.1219824,28.5120779 39.5402604,32.0937999 39.5402604,36.5120779 C39.5402604,40.9303559 43.1219824,44.5120779 47.5402604,44.5120779 Z M47.5402604,46.5120779 C42.0174129,46.5120779 37.5402604,42.0349254 37.5402604,36.5120779 C37.5402604,30.9892304 42.0174129,26.5120779 47.5402604,26.5120779 C53.0631079,26.5120779 57.5402604,30.9892304 57.5402604,36.5120779 C57.5402604,42.0349254 53.0631079,46.5120779 47.5402604,46.5120779 Z" id="Oval-Copy" fill-rule="nonzero"></path>
            <path d="M70.089924,47.8026866 L68.9724558,49.4613804 C67.2525561,48.3026775 65.6098634,47.7047862 64.037668,47.6455498 C62.3993167,47.5838208 60.7901559,47.8478625 59.2028657,48.4400392 L58.5037839,46.5661971 C60.3366021,45.8824202 62.2087707,45.5752224 64.1129696,45.6469679 C66.0833245,45.721206 68.0778792,46.4471645 70.089924,47.8026866 Z" id="Path-3-Copy-4" fill-rule="nonzero"></path>
            <path d="M13.8877069,34.4941578 L12.0997843,35.3904461 C10.6720494,32.54239 9.12151852,30.8607401 7.49964119,30.2877589 C5.67189675,29.6420484 3.70034532,29.2224846 1.58327459,29.0300825 L1.76429117,27.0382911 C4.04340006,27.2454195 6.17782514,27.6996442 8.16585407,28.4019804 C10.3597501,29.1770459 12.2498845,31.2270176 13.8877069,34.4941578 Z" id="Path-3-Copy-7" fill-rule="nonzero"></path>
            <path d="M68.5554203,54.3359605 L66.7958445,55.2866935 C66.3533435,54.4677317 65.282725,53.7132656 63.543841,53.0803636 C61.7779394,52.437628 59.7017076,52.3397076 57.3016726,52.8030717 L56.9225427,50.8393353 C59.6591667,50.3109875 62.0987705,50.4260454 64.2278813,51.2009784 C66.3840096,51.9857449 67.8399053,53.0117162 68.5554203,54.3359605 Z" id="Path-3-Copy-5" fill-rule="nonzero"></path>
            <path d="M11.417699,39.0320567 L9.42121201,39.1505464 C9.39676155,38.7385693 8.18196597,37.8260303 5.72990699,36.7828342 C4.43013313,36.2298626 3.42270479,35.9493452 2.74050123,35.929073 C2.27706993,35.9153017 2.11581246,35.9930796 2.04870351,36.1370871 L0.235881428,35.2922936 C1.07641017,33.4886232 3.24720966,33.5531302 6.5128691,34.9424619 C9.67790415,36.2889842 11.3284869,37.5288809 11.417699,39.0320567 Z" id="Path-3-Copy-8" fill-rule="nonzero"></path>
            <path d="M64.5424132,61.6349332 L62.5620322,61.9143816 C62.4863425,61.3779876 61.7602682,60.3044239 60.3825111,58.8491866 C59.0697352,57.4625848 56.9837016,56.7033307 54.0707986,56.6111109 L54.1340851,54.6121125 C57.532969,54.7197179 60.1177643,55.6605065 61.8348592,57.4741648 C63.4869729,59.2191876 64.3899237,60.5542784 64.5424132,61.6349332 Z" id="Path-3-Copy-6" fill-rule="nonzero"></path>
            <path d="M12.1587398,41.9813107 L11.6547415,43.9167656 C8.40086651,43.0694468 6.09247834,42.5873521 4.76474924,42.4718113 C3.59809352,42.3702874 2.41036864,42.7022792 1.17718732,43.4949476 L0.0957600214,41.8125342 C1.68517295,40.7908861 3.30742757,40.3374348 4.93813661,40.4793413 C6.40777227,40.6072309 8.80291593,41.1074441 12.1587398,41.9813107 Z" id="Path-3-Copy-9" fill-rule="nonzero"></path>
            <rect id="Rectangle" x="33.2323922" y="57.0612999" width="4" height="2"></rect>
        </g>
    </g>
</svg>