<?xml version="1.0" encoding="utf-8"?>
<svg xmlns="http://www.w3.org/2000/svg" style="margin: auto; background: transparent; display: block; shape-rendering: auto;" width="260" height="260" preserveAspectRatio="xMidYMid">
<style type="text/css">
  text {
    text-anchor: middle; font-size: 70px; opacity: 0;
  }
</style>
<g style="transform-origin:130px 130px;transform:scale(1)">
<g transform="translate(130,130)">
  <g transform="translate(0,0)"><g class="path" style="transform: matrix(1, 0, 0, 1, 0, 0); transform-origin: -85.48px -5.57686px; animation: 1s linear -0.565714s infinite normal forwards running bounce-1e0c730b-f7cb-49f6-99ee-90fd36ca39bc;"><path d="M12.85 0L4.31 0L21.94-50.31L30.08-50.31L47.58 0L39.10 0L35.48-10.46L16.54-10.46L12.85 0zM26.04-37.73L18.46-16.00L33.50-16.00L26.04-37.73" fill="#006bff" stroke="none" stroke-width="none" transform="translate(-111.42498779296875,19.578141697474894)" style="fill: rgb(0, 107, 255);"></path></g><g class="path" style="transform: matrix(1, 0, 0, 1, 0, 0); transform-origin: -36.4px 7.71814px; animation: 1s linear -0.471429s infinite normal forwards running bounce-1e0c730b-f7cb-49f6-99ee-90fd36ca39bc;"><path d="M91.46-26.87L91.46-26.87L91.46-26.87Q92.29-23.72 92.29-19.82L92.29-19.82L92.29-19.82Q92.29-15.93 91.36-12.27L91.36-12.27L91.36-12.27Q90.44-8.61 88.56-5.81L88.56-5.81L88.56-5.81Q86.68-3.01 83.84-1.33L83.84-1.33L83.84-1.33Q81.01 0.34 77.18 0.34L77.18 0.34L77.18 0.34Q75.13 0.34 73.21-0.07L73.21-0.07L73.21-0.07Q71.30-0.48 69.79-1.20L69.79-1.20L69.79-1.20Q68.29-1.91 67.30-2.77L67.30-2.77L67.30-2.77Q66.31-3.62 66.10-4.58L66.10-4.58L66.10 15.18L57.76 15.18L57.76-38.55L65.21-38.55L66.10-34.66L66.10-34.66Q67.47-36.57 70.24-37.73L70.24-37.73L70.24-37.73Q73.01-38.90 76.36-38.90L76.36-38.90L76.36-38.90Q78.61-38.90 80.94-38.28L80.94-38.28L80.94-38.28Q83.26-37.67 85.28-36.23L85.28-36.23L85.28-36.23Q87.29-34.79 88.94-32.47L88.94-32.47L88.94-32.47Q90.58-30.15 91.46-26.87zM74.44-6.08L74.44-6.08L74.44-6.08Q76.49-6.08 78.17-7.11L78.17-7.11L78.17-7.11Q79.84-8.13 81.04-9.88L81.04-9.88L81.04-9.88Q82.24-11.62 82.92-14.05L82.92-14.05L82.92-14.05Q83.60-16.47 83.60-19.21L83.60-19.21L83.60-19.21Q83.60-21.88 82.99-24.27L82.99-24.27L82.99-24.27Q82.37-26.66 81.25-28.51L81.25-28.51L81.25-28.51Q80.12-30.35 78.51-31.45L78.51-31.45L78.51-31.45Q76.90-32.54 74.79-32.54L74.79-32.54L74.79-32.54Q72.73-32.54 71.03-31.51L71.03-31.51L71.03-31.51Q69.32-30.49 68.09-28.75L68.09-28.75L68.09-28.75Q66.86-27.00 66.21-24.64L66.21-24.64L66.21-24.64Q65.56-22.29 65.56-19.55L65.56-19.55L65.56-19.55Q65.56-16.82 66.14-14.39L66.14-14.39L66.14-14.39Q66.72-11.96 67.88-10.12L67.88-10.12L67.88-10.12Q69.04-8.27 70.68-7.18L70.68-7.18L70.68-7.18Q72.32-6.08 74.44-6.08" fill="#006bff" stroke="none" stroke-width="none" transform="translate(-111.42498779296875,19.578141697474894)" style="fill: rgb(37, 145, 255);"></path></g><g class="path" style="transform: matrix(1, 0, 0, 1, 0, 0); transform-origin: -5.80499px 0.303143px; animation: 1s linear -0.377143s infinite normal forwards running bounce-1e0c730b-f7cb-49f6-99ee-90fd36ca39bc;"><path d="M109.79-38.55L109.79 0L101.45 0L101.45-38.55L109.79-38.55" fill="#006bff" stroke="none" stroke-width="none" transform="translate(-111.42498779296875,19.578141697474894)" style="fill: rgb(60, 163, 255);"></path></g><g class="path" style="transform: matrix(1, 0, 0, 1, 0, 0); transform-origin: -5.77499px -31.3169px; animation: 1s linear -0.282857s infinite normal forwards running bounce-1e0c730b-f7cb-49f6-99ee-90fd36ca39bc;"><path d="M110.54-50.86L110.54-50.86L110.54-50.86Q110.54-48.81 109.10-47.41L109.10-47.41L109.10-47.41Q107.67-46.01 105.62-46.01L105.62-46.01L105.62-46.01Q103.56-46.01 102.16-47.44L102.16-47.44L102.16-47.44Q100.76-48.88 100.76-50.86L100.76-50.86L100.76-50.86Q100.76-52.91 102.20-54.35L102.20-54.35L102.20-54.35Q103.63-55.78 105.62-55.78L105.62-55.78L105.62-55.78Q107.67-55.78 109.10-54.35L109.10-54.35L109.10-54.35Q110.54-52.91 110.54-50.86" fill="#006bff" stroke="none" stroke-width="none" transform="translate(-111.42498779296875,19.578141697474894)" style="fill: rgb(0, 107, 255);"></path></g><g class="path" style="transform: matrix(1, 0, 0, 1, 0, 0); transform-origin: 27.005px -5.85186px; animation: 1s linear -0.188571s infinite normal forwards running bounce-1e0c730b-f7cb-49f6-99ee-90fd36ca39bc;"><path d="M150.25-10.12L155.93-5.13L155.93-5.13Q153.13-2.39 149.57-1.03L149.57-1.03L149.57-1.03Q146.02 0.34 141.91 0.34L141.91 0.34L141.91 0.34Q137.40 0.34 133.61-1.30L133.61-1.30L133.61-1.30Q129.81-2.94 126.98-6.15L126.98-6.15L126.98-6.15Q124.14-9.37 122.53-14.22L122.53-14.22L122.53-14.22Q120.93-19.07 120.93-25.43L120.93-25.43L120.93-25.43Q120.93-31.79 122.53-36.61L122.53-36.61L122.53-36.61Q124.14-41.43 126.98-44.64L126.98-44.64L126.98-44.64Q129.81-47.85 133.64-49.53L133.64-49.53L133.64-49.53Q137.47-51.20 141.91-51.20L141.91-51.20L141.91-51.20Q146.02-51.20 149.57-49.83L149.57-49.83L149.57-49.83Q153.13-48.47 155.93-45.73L155.93-45.73L150.25-40.67L150.25-40.67Q148.54-42.66 146.46-43.54L146.46-43.54L146.46-43.54Q144.38-44.43 142.12-44.43L142.12-44.43L142.12-44.43Q139.59-44.43 137.30-43.48L137.30-43.48L137.30-43.48Q135.01-42.52 133.20-40.23L133.20-40.23L133.20-40.23Q131.39-37.94 130.36-34.32L130.36-34.32L130.36-34.32Q129.34-30.69 129.27-25.43L129.27-25.43L129.27-25.43Q129.34-20.30 130.33-16.68L130.33-16.68L130.33-16.68Q131.32-13.06 133.06-10.77L133.06-10.77L133.06-10.77Q134.80-8.48 137.03-7.42L137.03-7.42L137.03-7.42Q139.25-6.36 141.71-6.36L141.71-6.36L141.71-6.36Q144.17-6.36 146.32-7.25L146.32-7.25L146.32-7.25Q148.48-8.13 150.25-10.12L150.25-10.12" fill="#006bff" stroke="none" stroke-width="none" transform="translate(-111.42498779296875,19.578141697474894)" style="fill: rgb(37, 145, 255);"></path></g><g class="path" style="transform: matrix(1, 0, 0, 1, 0, 0); transform-origin: 70.41px 0.333141px; animation: 1s linear -0.0942857s infinite normal forwards running bounce-1e0c730b-f7cb-49f6-99ee-90fd36ca39bc;"><path d="M195.23-20.85L195.23-11.96L195.23-11.42L195.23-11.42Q195.23-10.87 195.30-9.81L195.30-9.81L195.30-9.81Q195.37-8.75 195.58-7.66L195.58-7.66L195.58-7.66Q195.78-6.56 196.23-5.67L196.23-5.67L196.23-5.67Q196.67-4.79 197.42-4.51L197.42-4.51L195.23 0.07L195.23 0.07Q194.35 0.07 193.35-0.34L193.35-0.34L193.35-0.34Q192.36-0.75 191.44-1.50L191.44-1.50L191.44-1.50Q190.52-2.26 189.87-3.18L189.87-3.18L189.87-3.18Q189.22-4.10 188.88-5.20L188.88-5.20L188.88-5.20Q188.40-4.03 187.20-3.04L187.20-3.04L187.20-3.04Q186.01-2.05 184.50-1.26L184.50-1.26L184.50-1.26Q183.00-0.48 181.25-0.07L181.25-0.07L181.25-0.07Q179.51 0.34 178.01 0.34L178.01 0.34L178.01 0.34Q175.68 0.34 173.53-0.27L173.53-0.27L173.53-0.27Q171.38-0.89 169.74-2.26L169.74-2.26L169.74-2.26Q168.10-3.62 167.17-5.88L167.17-5.88L167.17-5.88Q166.25-8.13 166.25-11.42L166.25-11.42L166.25-11.42Q166.25-14.56 167.58-16.85L167.58-16.85L167.58-16.85Q168.92-19.14 171.00-20.61L171.00-20.61L171.00-20.61Q173.09-22.08 175.75-22.80L175.75-22.80L175.75-22.80Q178.42-23.52 181.15-23.52L181.15-23.52L186.96-23.52L186.96-23.52Q186.96-26.87 186.62-28.85L186.62-28.85L186.62-28.85Q186.28-30.83 185.46-31.75L185.46-31.75L185.46-31.75Q184.64-32.68 183.44-32.92L183.44-32.92L183.44-32.92Q182.25-33.15 180.61-33.15L180.61-33.15L180.61-33.15Q179.10-33.15 177.77-32.78L177.77-32.78L177.77-32.78Q176.44-32.40 175.31-31.89L175.31-31.89L175.31-31.89Q174.18-31.38 173.33-30.76L173.33-30.76L173.33-30.76Q172.47-30.15 172.06-29.80L172.06-29.80L168.98-34.52L168.98-34.52Q169.67-35.27 171.04-36.06L171.04-36.06L171.04-36.06Q172.40-36.85 174.18-37.46L174.18-37.46L174.18-37.46Q175.96-38.08 178.04-38.45L178.04-38.45L178.04-38.45Q180.13-38.83 182.38-38.83L182.38-38.83L182.38-38.83Q184.43-38.83 186.38-38.42L186.38-38.42L186.38-38.42Q188.33-38.01 189.94-37.05L189.94-37.05L189.94-37.05Q191.54-36.09 192.74-34.49L192.74-34.49L192.74-34.49Q193.94-32.88 194.41-30.49L194.41-30.49L194.41-30.49Q194.89-28.10 195.06-25.67L195.06-25.67L195.06-25.67Q195.23-23.24 195.23-20.85L195.23-20.85zM187.03-9.23L187.03-18.66L182.66-18.66L182.66-18.66Q181.29-18.66 179.79-18.39L179.79-18.39L179.79-18.39Q178.28-18.12 176.98-17.36L176.98-17.36L176.98-17.36Q175.68-16.61 174.83-15.21L174.83-15.21L174.83-15.21Q173.97-13.81 173.97-11.62L173.97-11.62L173.97-11.62Q173.97-8.20 175.51-6.70L175.51-6.70L175.51-6.70Q177.05-5.20 179.99-5.20L179.99-5.20L179.99-5.20Q182.04-5.20 183.92-6.29L183.92-6.29L183.92-6.29Q185.80-7.38 187.03-9.23L187.03-9.23" fill="#006bff" stroke="none" stroke-width="none" transform="translate(-111.42498779296875,19.578141697474894)" style="fill: rgb(60, 163, 255);"></path></g><g class="path" style="transform: matrix(1, 0, 0, 1, 0, 0); transform-origin: 105.14px -4.99686px; animation: 1s linear 0s infinite normal forwards running bounce-1e0c730b-f7cb-49f6-99ee-90fd36ca39bc;"><path d="M219.30-32.95L219.30-11.69L219.30-11.69Q219.30-9.37 219.91-8.07L219.91-8.07L219.91-8.07Q220.53-6.77 221.66-6.08L221.66-6.08L221.66-6.08Q222.78-5.40 224.18-5.23L224.18-5.23L224.18-5.23Q225.59-5.06 227.16-5.06L227.16-5.06L227.16 0L227.16 0Q226.27 0.14 225.38 0.21L225.38 0.21L225.38 0.21Q224.63 0.27 223.57 0.31L223.57 0.31L223.57 0.31Q222.51 0.34 221.48 0.34L221.48 0.34L221.48 0.34Q220.46 0.34 219.40 0.27L219.40 0.27L219.40 0.27Q218.34 0.21 217.59 0.07L217.59 0.07L217.59 0.07Q215.26-0.34 213.96-1.95L213.96-1.95L213.96-1.95Q212.67-3.55 212.02-5.50L212.02-5.50L212.02-5.50Q211.37-7.45 211.20-9.30L211.20-9.30L211.20-9.30Q211.03-11.14 211.03-12.17L211.03-12.17L211.03-32.95L205.97-32.95L205.97-38.55L211.03-38.55L211.03-49.49L219.30-49.49L219.30-38.55L225.45-38.55L225.45-32.95L219.30-32.95" fill="#006bff" stroke="none" stroke-width="none" transform="translate(-111.42498779296875,19.578141697474894)" style="fill: rgb(0, 107, 255);"></path></g></g>
</g>
</g>
<style id="bounce-1e0c730b-f7cb-49f6-99ee-90fd36ca39bc" data-anikit="">@keyframes bounce-1e0c730b-f7cb-49f6-99ee-90fd36ca39bc
{
  0% {
    animation-timing-function: cubic-bezier(0.1361,0.2514,0.2175,0.8786);
    transform: translate(0,0px) scaleY(1);
  }
  37% {
    animation-timing-function: cubic-bezier(0.7674,0.1844,0.8382,0.7157);
    transform: translate(0,-39.96px) scaleY(1);
  }
  72% {
    animation-timing-function: cubic-bezier(0.1118,0.2149,0.2172,0.941);
    transform: translate(0,0px) scaleY(1);
  }
  87% {
    animation-timing-function: cubic-bezier(0.7494,0.2259,0.8209,0.6963);
    transform: translate(0,19.900000000000002px) scaleY(0.602);
  }
  100% {
    transform: translate(0,0px) scaleY(1);
  }
}</style></svg>