<?xml version="1.0" encoding="utf-8"?>
<!-- Generator: Adobe Illustrator 26.2.1, SVG Export Plug-In . SVG Version: 6.00 Build 0)  -->
<svg version="1.1" id="图层_1" xmlns="http://www.w3.org/2000/svg" xmlns:xlink="http://www.w3.org/1999/xlink" x="0px" y="0px"
	 viewBox="0 0 303.98 337.34" style="enable-background:new 0 0 303.98 337.34;" xml:space="preserve">
<style type="text/css">
	.st0{fill:#006bff;}
</style>
<g>
	<g>
		<path class="st0" d="M214.09,295.79l-56.13-118.88h-11.94L89.89,295.79C58.74,277.17,36.6,245,31.65,207.47H0.83
			c5.2,49.81,34.45,92.46,75.93,116.14c10.08,5.76,20.88,10.39,32.23,13.73l13.2-28.13l29.81-63.55l29.8,63.55l13.2,28.13
			c11.35-3.34,22.15-7.97,32.23-13.72c41.48-23.68,70.72-66.33,75.92-116.14h-30.81C267.39,245,245.24,277.17,214.09,295.79z"/>
		<path class="st0" d="M291.34,0l-61.16,61.17c-22.84-13.74-49.59-21.63-78.19-21.63s-55.34,7.9-78.18,21.63L12.64,0H0v176.91h31.48
			C38.72,116.84,90,70.13,151.99,70.13c61.99,0,113.27,46.71,120.51,106.78h31.48V0H291.34z M49.06,79.69
			c-6.75,6.21-12.93,13.02-18.46,20.35V61.22L49.06,79.69L49.06,79.69z M273.38,100.05c-5.53-7.33-11.72-14.15-18.46-20.35v-0.01
			l18.46-18.46V100.05z"/>
	</g>
</g>
</svg>
